<svg viewBox="0 0 385.68 117.75" xmlns="http://www.w3.org/2000/svg"><g fill="#fff"><path d="m267.65 57v10.11h-7.52v-27.79h9.09q11.32 0 11.33 8.21a8.2 8.2 0 0 1 -4.72 7.47l8.09 12.11h-8.49l-5.88-10.11zm0-5.64h1.41q4 0 4-3.46c-.06-1.9-1.31-2.9-3.91-2.9h-1.47z"/><path d="m322.16 45.08a4.81 4.81 0 0 0 -4.16 2.19 10.52 10.52 0 0 0 -1.51 6q0 8 6.1 8a12.32 12.32 0 0 0 3.57-.5c1.18-.37 2.35-.79 3.48-1.27v6.32a19.18 19.18 0 0 1 -7.87 1.6 12.43 12.43 0 0 1 -9.65-3.65 15 15 0 0 1 -3.36-10.55 16.85 16.85 0 0 1 1.64-7.58 11.63 11.63 0 0 1 4.67-5.05 14.15 14.15 0 0 1 7.18-1.76 19.83 19.83 0 0 1 8.6 2l-2.3 5.91a26.29 26.29 0 0 0 -3.08-1.22 10.92 10.92 0 0 0 -3.31-.49"/><path d="m354.49 67.12h-16.49v-27.8h16.5v6.06h-9v4.37h8.36v6h-8.36v5.25h9z"/><path d="m296.89 41.13c.48.06 1.05-1.27 1.27-2.93s0-3.11-.47-3.16-1.05 1.26-1.26 2.93 0 3.1.46 3.16"/><path d="m300.08 47c-.25-.19-.5-.37-.73-.52.49-.88.7-1.61.43-1.82s-.48 0-.87.2a7.93 7.93 0 0 0 .63-2.25c.22-1.68 0-3.1-.47-3.16s-1 1.15-1.26 2.73a8.12 8.12 0 0 0 -1-.87 4.47 4.47 0 0 0 -.58-.42 6 6 0 0 0 -1.43-2.48c-1.1-1.26-2.3-2.08-2.67-1.76s.23 1.62 1.33 2.91l.46.49a.08.08 0 0 0 -.07.05c-.27.34.38 1.32 1.5 2.28l-.43-.1a8.42 8.42 0 0 0 -1.66-.17c.14-1.69-.14-3.1-.63-3.16s-1 1.3-1.12 3 .14 3.1.63 3.16c.34 0 .69-.63.92-1.66a7.43 7.43 0 0 0 1.53.44 4.21 4.21 0 0 1 .49.09 1.49 1.49 0 0 0 -.26.67 9.59 9.59 0 0 0 -1 .45c-1.41.7-2.39 1.58-2.18 2s1.49.16 2.9-.53l.31-.17a.24.24 0 0 0 0 .12 7.5 7.5 0 0 0 -1.74 1.68 9.16 9.16 0 0 0 -.68 1 9.21 9.21 0 0 0 -1.42.67c-1.47.86-2.47 1.9-2.22 2.3s1.57.09 3-.71a5.85 5.85 0 0 0 -.92 2.75 7.82 7.82 0 0 0 -.07.81c-.74-.05-1.27.06-1.34.33s.48.81 1.41 1.27c.09.46.25.76.46.78s.36-.12.53-.41l.31.1a10.89 10.89 0 0 0 1.23.28c.31 1.42.84 2.46 1.27 2.38.15 0 .27-.18.35-.44a5.44 5.44 0 0 0 1 .33c-.05.14-.1.29-.14.45a6.69 6.69 0 0 0 -1.55.06c-.31-1.22-.79-2.07-1.18-2s-.47.63-.5 1.4c-.77-.69-1.45-1-1.72-.8s.05 1.16.77 2.19c-.7.33-1.11.69-1.05 1s1 .48 2.14.33l.24.23c.06.21.14.42.22.63-.36.09-.59.24-.63.42s.07.27.24.41a11.13 11.13 0 0 0 -.85 1.1c-1 1.41-1.4 2.78-1 3s1.09-.32 1.86-1.26a4.91 4.91 0 0 0 .1.77 9.25 9.25 0 0 0 .32 1.36c-.3.09-.49.23-.52.39s.4.6 1.11.85c.15.21.31.31.46.29a.32.32 0 0 0 .17-.09 11.58 11.58 0 0 0 1.2.24c1.68.22 3.1 0 3.16-.47a.45.45 0 0 0 -.19-.37c.52.32.92.44 1.12.27.35-.33-.28-1.6-1.42-2.84a10.8 10.8 0 0 0 .25-1.26 7.5 7.5 0 0 0 0-2.41c.95 1 1.9 1.5 2.18 1.23s-.23-1.61-1.33-2.91a6.84 6.84 0 0 0 -2.13-1.85.88.88 0 0 0 0-.23 6.36 6.36 0 0 0 2.57-.13c.19.25.36.38.52.37.48-.08.63-1.5.37-3.16a6.16 6.16 0 0 0 -1-2.68c.7-1.19 1-2.23.64-2.46s-1.51.63-2.46 2.05c-.2.29-.37.58-.53.86a5.36 5.36 0 0 0 -1.57-1.18 4.52 4.52 0 0 0 -.08-.63v-.11a7.75 7.75 0 0 0 2.18-.49l.21-.08c.31.15.55.18.69.07a.51.51 0 0 0 .1-.41c1.05-.51 1.73-1.11 1.6-1.45s-1.09-.38-2.29-.07a10.16 10.16 0 0 0 -.75-1c-.09-.12-.2-.23-.3-.34a8.17 8.17 0 0 0 1.1-1.1 6.21 6.21 0 0 0 .63.52c1.34 1.05 2.67 1.59 3 1.21s-.55-1.56-1.89-2.56m-3.39-2.48c-.09-.17-.37-.23-.79-.19a2 2 0 0 0 -.25-.35 2.67 2.67 0 0 0 1.8-.25l.23.1c0 .85.18 1.49.44 1.65l-.25.25c-.37-.11-.63-.1-.76.05s-.07.39.1.7c-.17.22-.32.44-.46.64a2.65 2.65 0 0 0 -.07-.48 9.65 9.65 0 0 0 -.34-1.41c.32-.32.47-.63.38-.78m1.27 18.23a1.54 1.54 0 0 0 -.5.63 4.62 4.62 0 0 0 -.52-.16 9.87 9.87 0 0 0 .34-1.45 10.88 10.88 0 0 0 .68.95m-2.39-1.38a10.73 10.73 0 0 0 -.09 1.6h-.48a2.88 2.88 0 0 0 -.41-1 .29.29 0 0 0 0-.13 8.48 8.48 0 0 0 1-.39m.35 7.45a10 10 0 0 0 -1.1-.09 9.27 9.27 0 0 0 -.13-1.49 7.81 7.81 0 0 0 -.67-2.22c.09-.19.18-.35.24-.51a11 11 0 0 0 1.27.25 9 9 0 0 0 1.47.09c-.06.25-.1.52-.14.8a.54.54 0 0 1 0 .18c-.57-.38-1-.53-1.23-.35s.23 1.5 1.26 2.7c.1.37.24.63.43.63h.15c.27.25.54.49.83.71a7.18 7.18 0 0 0 -2.4-.68m3.04-12.37a5.23 5.23 0 0 0 -.41-.63l.37-.42a8.88 8.88 0 0 0 0 1m-2.1 0a.4.4 0 0 0 .14.25.32.32 0 0 0 .14 0c.89.92 1.75 1.46 2.12 1.32l.12.37a8.26 8.26 0 0 0 -2-.5 7.71 7.71 0 0 0 -2.25 0 6.85 6.85 0 0 0 0-.79.34.34 0 0 0 .23-.22c.05-.17-.07-.38-.34-.63a9.1 9.1 0 0 0 -.26-1.15c.25.51.52.81.75.77s.35-.31.43-.74a10.15 10.15 0 0 0 .8 1.06l.18.21m-2.46-6.57c-.48.07-.63 1.5-.36 3.16.07.41.16.81.27 1.21-.23-.51-.51-.81-.75-.76s-.53.82-.49 1.89l-.52-.16-.2-.06c.06-.28.11-.57.16-.88.22-1.68 0-3.1-.47-3.16h-.05l.08-.05a5 5 0 0 0 2.33-1.9c.18-.24.35-.47.5-.7a7.92 7.92 0 0 0 1.26 1.93c.13.16.27.3.4.44a7.46 7.46 0 0 0 -1.1.63c-.29-1-.7-1.67-1.06-1.6"/><path d="m153.63 67.26h-3.25v-27.91h15.62v2.87h-12.38v10.22h11.57v2.89h-11.57z"/><path d="m177.91 55.65v11.62h-3.25v-27.92h7.66a12 12 0 0 1 7.58 2 7.15 7.15 0 0 1 2.46 5.92 7.43 7.43 0 0 1 -5.62 7.49l7.58 12.54h-3.84l-6.76-11.61zm0-2.78h4.41a7.66 7.66 0 0 0 5.06-1.37 5.07 5.07 0 0 0 1.62-4.1 4.63 4.63 0 0 0 -1.63-4 8.82 8.82 0 0 0 -5.24-1.22h-4.21z"/><path d="m218.51 67.26h-15.57v-27.91h15.57v2.87h-12.33v9h11.57v2.86h-11.57v10.29h12.33z"/><path d="m244.35 67.26h-15.55v-27.91h15.56v2.87h-12.36v9h11.59v2.86h-11.54v10.29h12.3z"/><path d="m100.36 20.24a.09.09 0 0 0 0 .16c3.75 2.41 3.37 4.59 10.29 9.66h.06c-1.59-5.39-5.28-9.62-10.3-9.78m9.59 2.49a.06.06 0 0 0 -.09.09 19.88 19.88 0 0 1 2.17 6.43l1.11 5.32s-.05.06-.06 0c-1-1.63-5.54-3.88-8.53-6.22a.06.06 0 0 0 -.1.07c1.69 4.94 7.15 7.05 10.5 10.68 0 0 .11 0 .1 0-.25-5.33.58-11.85-5.1-16.35m9.72 17.21a15.13 15.13 0 0 0 -3.11-9.44c0-.06-.14 0-.12.07 1.48 5.42-.1 10.15.5 14.23 0 .06-.06.07-.08 0-1.49-3.64-5.58-5.42-7.4-7.94 0-.07-.14 0-.12.06 1.68 7.19 7 9.48 8.12 13.28a.06.06 0 0 0 .12 0c.74-2.89 2.25-6 2.09-10.28m1.92 3.94a.08.08 0 0 0 -.15 0c-.13 5.3-3.24 9.41-3.87 13.07h-.06c-.11-4.75-3.54-7.61-5.46-11.21 0-.07-.14 0-.14 0-.29 6.87 4.68 11.14 4.51 16.87a.07.07 0 0 0 .13.05c3.92-5.41 7.6-12 5-18.85m1.22 14.2a.08.08 0 0 0 -.15 0c-2.39 4.84-5.26 6-8.88 11.23h-.06c1.42-4.27-.92-9.92-1-13.7a.07.07 0 0 0 -.14 0c-2.86 6.93.15 14.06-2.37 18.73a.06.06 0 0 0 .08.09 28.19 28.19 0 0 0 9.59-7.82c1.64-2.49 3.09-5.17 2.94-8.46m-3.54 12.88c-2.5 3.49-8.13 4.79-13.6 9.1 2.77-3.69 2.47-8.73 3.48-13.16a.06.06 0 0 0 -.1-.06c-5.31 6-4.64 12.6-7 15.68a.06.06 0 0 0 0 .1c8 0 16.7-7 17.32-11.57a.06.06 0 0 0 -.11 0m-7.64 12c-7.06 3.19-9.89 1.39-16.63 2.69 0 0-.06 0 0-.07 4.7-2.53 5.58-6.64 7.21-9.32a.06.06 0 0 0 -.08-.09c-5.14 2.43-6.88 8.23-13.07 9.7a.06.06 0 0 0 0 .11c2.61.61 4.57 1.76 7.29 2 7.55.64 13.06-1.67 15.37-5a.06.06 0 0 0 -.08-.09m-57.93-62.78c-5 .16-8.72 4.39-10.3 9.78a0 0 0 0 0 .06 0c6.92-5.02 6.52-7.21 10.28-9.62a.09.09 0 0 0 0-.16m-4.23 8.17c-3 2.34-7.55 4.59-8.53 6.22a0 0 0 0 1 -.06 0l1.06-5.34a19.41 19.41 0 0 1 2.17-6.43.06.06 0 0 0 -.09-.09c-5.69 4.5-4.85 11-5.1 16.35 0 .05.06.08.1 0 3.35-3.63 8.8-5.74 10.49-10.68a.06.06 0 0 0 -.09-.07m-4.93 8.48c-1.81 2.52-5.9 4.3-7.39 7.94 0 .05-.09 0-.08 0 .59-4.08-1-8.81.49-14.23a.07.07 0 0 0 -.12-.07 15.19 15.19 0 0 0 -3.1 9.51c-.15 4.27 1.35 7.39 2.09 10.28a.07.07 0 0 0 .13 0c1.07-3.85 6.43-6.14 8.11-13.28a.07.07 0 0 0 -.12-.06m-2.44 8.93a.08.08 0 0 0 -.15 0c-1.92 3.6-5.34 6.46-5.45 11.21 0 0-.06 0-.07 0-.62-3.66-3.73-7.77-3.87-13.07a.07.07 0 0 0 -.14 0c-2.56 6.9 1.12 13.44 5 18.85a.07.07 0 0 0 .13-.05c-.16-5.73 4.81-10 4.52-16.87m1.71 28.46c-2.52-4.67.49-11.8-2.37-18.73a.07.07 0 0 0 -.14 0c-.08 3.78-2.44 9.43-1 13.7a0 0 0 1 1 -.06 0c-3.6-5.37-6.47-6.47-8.87-11.31a.07.07 0 0 0 -.14 0c-.16 3.29 1.3 6 2.94 8.46a28.19 28.19 0 0 0 9.59 7.82.07.07 0 0 0 .08-.09m8.22 8.19c-2.35-3.08-1.68-9.66-7-15.68a.07.07 0 0 0 -.11.06c1 4.43.71 9.47 3.49 13.16 0 0 0 .07 0 0-5.47-4.31-11.1-5.61-13.61-9.1a.05.05 0 0 0 -.1 0c.58 4.64 9.28 11.67 17.28 11.69a.06.06 0 0 0 0-.1m13 3.53c-6.19-1.5-7.88-7.3-13.06-9.82-.05 0-.11 0-.08.09 1.63 2.68 2.52 6.79 7.21 9.32 0 0 0 .08 0 .07-6.74-1.3-9.57.5-16.63-2.69-.06 0-.13 0-.09.09 2.32 3.37 7.83 5.68 15.37 5 2.72-.23 4.69-1.38 7.3-2a.06.06 0 0 0 -.02-.06m39 4.08a13.81 13.81 0 0 1 -8.18.35c-5.9-1.81-12.47-5.3-18.82-2.43-6.31-2.9-12.88.59-18.8 2.43a13.81 13.81 0 0 1 -8.18-.35.06.06 0 0 0 -.06.11 13.68 13.68 0 0 0 12.79 2.35c4.23-1.32 7.81-5.8 12.82-3.89a34.72 34.72 0 0 0 -10.5 7.15l2.08 1.71c2.6-3 5.53-6.06 8.85-7.9a1.58 1.58 0 0 1 2.08 0c3.32 1.84 6.25 4.87 8.85 7.9l2.07-1.71a34.72 34.72 0 0 0 -10.54-7.12c5-1.91 8.59 2.57 12.82 3.89a13.68 13.68 0 0 0 12.79-2.35s0-.14-.06-.11"/><path d="m72.36 52.58h4l-4.77 17.59h-4l-3.79-11.66-3.8 11.66h-4.09l-4.79-17.59h4.17l2.9 11.26 3.65-11.26h4l3.66 11.29z"/><path d="m78.33 70.17v-17.59h11.34v3.72h-7.42v3.7h6.53v3.6h-6.5v6.57z"/><path d="m95.7 63.84v6.33h-3.92v-17.59h6.63c3.57 0 6 2.36 6 5.63s-2.45 5.63-6 5.63zm2.3-3.37a2.26 2.26 0 1 0 0-4.47h-2.27v4.49z"/><path d="m62.63 43.14v-10.49h2.37v10.42a3.49 3.49 0 0 0 3.86 3.8 3.46 3.46 0 0 0 3.83-3.8v-10.42h2.4v10.49c0 3.76-2.72 5.78-6.23 5.78s-6.23-2.02-6.23-5.78z"/><path d="m89.14 48.58-8.61-13v13h-2.2v-15.93h2.94l8 12.22v-12.22h2.2v15.93z"/></g></svg>