<svg height="140" viewBox="0 0 173 140" width="173" xmlns="http://www.w3.org/2000/svg" xmlns:xlink="http://www.w3.org/1999/xlink"><mask id="a" fill="#fff"><path d="m166.21 77.26c2.46 9.13-30 18.57-73.2 18.57-30.53 0-55.83-4.69-67.37-10.89-4.6-2.42-6.63-5.13-6-7.79s-18.99-1.26-19.04-11.34c0-7.78 0-57.57 0-64.9h183.4v64.9c0 10.92-18.32 9.51-17.79 11.45z" fill="#fff" fill-rule="evenodd"/></mask><g fill="none" fill-rule="evenodd" transform="translate(-2 -20)"><g fill-rule="nonzero"><path d="m60.32 146.42s-2 13.26 32.91 13.26 32.92-13.26 32.92-13.26z" fill="#dde7f3"/><path d="m16.44 78.54c0-10.79 34.4-19.54 76.83-19.54s76.83 8.75 76.83 19.54 4.72 74.81-76.83 74.81c-80.34 0-76.83-74.79-76.83-74.81z" fill="#f7f7f7"/><path d="m16.44 78.54s-4.71 74.810107 76.83 74.810107c5.1099089.00688 10.214587-.327196 15.28-1.000107-60.5 4-73.08-38.82-75.63-59.7-11.09-3.96-16.48-9.05-16.48-14.11z" fill="#f0f0f0"/><path d="m152.57 98.86c-4.11 16.34-13.91 36.71-37.08 48.45 7.719118-1.85773 15.1291-4.821723 22-8.8 3.635093-2.125692 6.900921-4.827514 9.67-8 10.17-11.67 14.75-25.42 16.79-36.25-3.637967 1.8927175-7.448658 3.4330673-11.38 4.6z" fill="#fff"/><path d="m166.15 77.21c2.47 9.14-30 18.6-73.24 18.6-43 0-75.53-9.42-73.23-18.6 2.32-9.39 32.79-17.15 73.23-17.15s70.79 8.08 73.24 17.15z" fill="#0a6eb0"/></g><g mask="url(#a)"><g fill-rule="nonzero" transform="translate(2 20)"><g fill="#faf9f0" stroke="#f4f1e9" stroke-linejoin="round" stroke-width=".5"><path d="m26.37 54.85c1.58 5.8 2.3 10.64.24 11.21s-3.93-4-5.54-9.75c-.5496183-1.9711728-.9738013-3.9751867-1.27-6-.15-1.11.47-.6.77-2.3.23-1.28-.41-2.45-.11-2.77.1055872-.0969913.2380646-.1597438.38-.18 1.95-.51 3.94 4 5.54 9.75"/><path d="m151.06 52.86c-1.58 5.8-2.3 10.64-.24 11.2s3.93-4 5.54-9.75c.555474-1.9697336.979738-3.9741297 1.27-6 .15-1.1-.47-.6-.77-2.3-.22-1.27.41-2.45.11-2.77-.110472-.0894898-.240775-.1512122-.38-.18-2-.51-3.94 4-5.54 9.75"/><path d="m51.16 71.46c-3.92-2.34-6.86-4.61-6-6s4.24.09 8.17 2.41c1.3296316.7786344 2.6088369 1.6403445 3.83 2.58.66.52.06.57.79 1.66.55.82 1.52 1.12 1.53 1.46-.0123178.1073176-.0500254.2101566-.11.3-.8 1.3-4.24-.09-8.17-2.42"/><path d="m94.16 70.46c-3.92-2.34-6.86-4.61-6-6s4.24.09 8.17 2.41c1.3296316.7786344 2.6088369 1.6403445 3.83 2.58.66.52.06.57.79 1.66.55.82 1.52 1.12 1.53 1.46-.012318.1073176-.050025.2101566-.11.3-.8 1.3-4.24-.09-8.17-2.42"/><path d="m73.74 66.16c-1.24 5.49-2.74 9.84-4.74 9.37s-1.51-5-.29-10.51c.3992071-1.8589143.9203335-3.6895377 1.56-5.48.36-1 .65-.29 1.65-1.56.75-1 .74-2.22 1.13-2.35.1275943-.0353686.2624057-.0353686.39 0 1.84.43 1.52 5 .29 10.51"/><path d="m52.74 50.16c-1.24 5.49-2.74 9.84-4.74 9.37s-1.51-5-.29-10.51c.3992071-1.8589143.9203335-3.6895377 1.56-5.48.36-1 .65-.29 1.65-1.56.75-1 .74-2.22 1.13-2.35.1275943-.0353686.2624057-.0353686.39 0 1.84.43 1.52 5 .29 10.51"/><path d="m111.74 50.16c-1.24 5.49-2.74 9.84-4.74 9.37s-1.51-5-.29-10.51c.399207-1.8589143.920333-3.6895377 1.56-5.48.36-1 .65-.29 1.65-1.56.75-1 .74-2.22 1.13-2.35.127594-.0353686.262406-.0353686.39 0 1.84.43 1.52 5 .29 10.51"/><path d="m95.74 49.16c-1.24 5.49-2.74 9.84-4.74 9.37s-1.51-5-.29-10.51c.3992071-1.8589143.9203335-3.6895377 1.56-5.48.36-1 .65-.29 1.65-1.56.75-1 .74-2.22 1.13-2.35.1275943-.0353686.2624057-.0353686.39 0 1.84.43 1.52 5 .29 10.51"/><path d="m137.69 49.16c1.24 5.49 2.78 9.81 4.73 9.38s1.52-5 .29-10.51c-.399203-1.8621904-.920325-3.6961403-1.56-5.49-.36-1-.66-.29-1.65-1.56-.75-1-.74-2.22-1.14-2.34-.127661-.034873-.262339-.034873-.39 0-1.83.44-1.51 5-.28 10.51"/><path d="m68.41 57.73c4.33 3.61 7.48 6.94 6.21 8.48s-5.15-.93-9.5-4.52c-1.4738308-1.2038109-2.8699573-2.499737-4.18-3.88-.7-.76 0-.71-.64-2.18-.51-1.1-1.64-1.66-1.57-2.07.0308944-.1286366.0966332-.2462745.19-.34 1.22-1.44 5.15.92 9.5 4.51"/><path d="m120 55.73c-4.32 3.61-7.48 6.94-6.2 8.48s5.15-.93 9.49-4.52c1.476072-1.2012357 2.872359-2.4973109 4.18-3.88.71-.76 0-.72.65-2.18.51-1.1 1.63-1.66 1.57-2.07-.030448-.1310715-.100232-.2497047-.2-.34-1.22-1.44-5.15.92-9.49 4.51"/><path d="m34.41 51.73c4.33 3.61 7.48 6.94 6.21 8.48s-5.15-.93-9.5-4.52c-1.4738308-1.2038109-2.8699573-2.499737-4.18-3.88-.7-.76 0-.71-.64-2.18-.51-1.1-1.64-1.66-1.57-2.07.0308944-.1286366.0966332-.2462745.19-.34 1.22-1.44 5.15.92 9.5 4.51"/><path d="m39.49 52.29c3.61-4.29 6.94-7.48 8.51-6.21s-.93 5.15-4.52 9.5c-1.1985605 1.4752598-2.4948083 2.8683921-3.88 4.17-.76.71-.71 0-2.18.65-1.1.51-1.66 1.64-2.07 1.57-.1286366-.0308944-.2462745-.0966332-.34-.19-1.44-1.22.93-5.16 4.51-9.5"/><path d="m78.49 54.29c3.61-4.29 6.94-7.48 8.51-6.21s-.93 5.15-4.52 9.5c-1.1985605 1.4752598-2.4948083 2.8683921-3.88 4.17-.76.71-.71 0-2.18.65-1.1.51-1.66 1.64-2.07 1.57-.1286366-.0308944-.2462745-.0966332-.34-.19-1.44-1.22.93-5.16 4.51-9.5"/><path d="m150.93 50.29c-3.6-4.33-6.94-7.48-8.48-6.21s.93 5.15 4.52 9.5c1.206569 1.4714258 2.50234 2.8673852 3.88 4.18.77.7.72 0 2.19.64 1.1.51 1.66 1.64 2.07 1.57.128637-.0308944.246274-.0966332.34-.19 1.44-1.22-.93-5.16-4.52-9.5"/><path d="m151 69.53c5.63-.07 10.18-.68 10.160066-2.68-.020066-2-4.590066-2.52-10.220066-2.46-1.90297.0010891-3.803785.1280328-5.69.38-1 .15-.43.58-1.88 1.29-1.09.54-2.32.27-2.52.62-.056955.1216679-.081087.2561195-.07.39.05 1.89 4.59 2.52 10.23 2.47"/><path d="m125.38 66.86c-3.6-4.33-6.94-7.48-8.48-6.2s.93 5.15 4.52 9.49c1.201236 1.4760717 2.497311 2.8723588 3.88 4.18.77.71.72 0 2.19.64 1.1.51 1.66 1.64 2.07 1.58.128422-.0368442.245402-.1056559.34-.2 1.44-1.22-.93-5.15-4.52-9.49"/><path d="m39.05 60.86c3.6-4.32 6.94-7.48 8.47-6.2s-.92 5.15-4.51 9.49c-1.2039922 1.4736728-2.499908 2.8697883-3.88 4.18-.77.71-.72 0-2.19.64-1.1.51-1.66 1.64-2.07 1.58-.1295392-.034203-.2471673-.103396-.34-.2-1.44-1.22.93-5.15 4.52-9.49"/><path d="m82.05 59.86c3.6-4.32 6.94-7.48 8.47-6.2s-.92 5.15-4.51 9.49c-1.2039922 1.4736728-2.499908 2.8697883-3.88 4.18-.77.71-.72 0-2.19.64-1.1.51-1.66 1.64-2.07 1.58-.1295392-.034203-.2471673-.103396-.34-.2-1.44-1.22.93-5.15 4.52-9.49"/><path d="m107.05 47.86c3.6-4.32 6.94-7.48 8.47-6.2s-.92 5.15-4.51 9.49c-1.203992 1.4736728-2.499908 2.8697883-3.88 4.18-.77.71-.72 0-2.19.64-1.1.51-1.66 1.64-2.07 1.58-.129539-.034203-.247167-.103396-.34-.2-1.44-1.22.93-5.15 4.52-9.49"/><path d="m147.38 57.86c-3.6-4.32-6.94-7.48-8.48-6.2s.93 5.15 4.52 9.49c1.201236 1.4760717 2.497311 2.8723588 3.88 4.18.77.71.72 0 2.19.64 1.1.51 1.66 1.64 2.07 1.58.128422-.0368442.245402-.1056559.34-.2 1.44-1.22-.93-5.15-4.52-9.49"/><path d="m142.38 35.86c-3.6-4.32-6.94-7.48-8.48-6.2s.93 5.15 4.52 9.49c1.201236 1.4760717 2.497311 2.8723588 3.88 4.18.77.71.72 0 2.19.64 1.1.51 1.66 1.64 2.07 1.58.128422-.0368442.245402-.1056559.34-.2 1.44-1.22-.93-5.15-4.52-9.49"/><path d="m62 43.09c6.47 2.46 11.48 5.08 10.61 7.38s-6.36 1-12.85-1.45c-2.1976367-.8106108-4.341902-1.7591643-6.42-2.84-1.13-.61-.24-.85-1.63-2.28-1-1.08-2.57-1.29-2.66-1.79-.0084802-.1616417.0224041-.3229261.09-.47.85-2.16 6.37-1 12.86 1.45"/><path d="m85 17.09c6.47 2.46 11.48 5.08 10.61 7.38s-6.36 1-12.85-1.45c-2.1976367-.8106108-4.341902-1.7591643-6.42-2.84-1.13-.61-.24-.85-1.63-2.28-1-1.08-2.57-1.29-2.66-1.79-.0084802-.1616417.0224041-.3229261.09-.47.85-2.16 6.37-1 12.86 1.45"/><path d="m127.46 55.09c-6.46 2.46-11.46 5.08-10.62 7.38s6.37 1 12.86-1.45c2.195137-.8087748 4.33619-1.7573851 6.41-2.84 1.13-.61.25-.85 1.63-2.28 1-1.08 2.57-1.29 2.66-1.79.020097-.1654488-.011332-.3330695-.09-.48-.84-2.16-6.36-1-12.86 1.46"/><path d="m36.77 45.27c-6.92-.22-12.5-1.06-12.44-3.52s5.7-3 12.63-2.81c2.3437902.0495988 4.6819574.2500131 7 .6 1.26.21.5.73 2.28 1.63 1.33.68 2.84.38 3.09.82.0678413.1502824.0920962.3166017.07.48-.1 2.31-5.7 3-12.63 2.81"/><path d="m101.77 40.27c-6.92-.22-12.5-1.06-12.44-3.52s5.7-3 12.63-2.81c2.34379.0495988 4.681957.2500131 7 .6 1.26.21.5.73 2.28 1.63 1.33.68 2.84.38 3.09.82.067841.1502824.092096.3166017.07.48-.1 2.31-5.7 3-12.63 2.81"/><path d="m128.77 46.27c-6.92-.22-12.5-1.06-12.44-3.52s5.7-3 12.63-2.81c2.34379.0495988 4.681957.2500131 7 .6 1.26.21.5.73 2.28 1.63 1.33.68 2.84.38 3.09.82.067841.1502824.092096.3166017.07.48-.1 2.31-5.7 3-12.63 2.81"/><path d="m82.77 12.27c-6.92-.22-12.5-1.06-12.44-3.52s5.7-3 12.63-2.81c2.3437902.04959876 4.6819574.2500131 7 .6 1.26.21.5.73 2.28 1.63 1.33.68 2.84.38 3.09.82.0678413.15028238.0920962.31660173.07.48-.1 2.31-5.7 3-12.63 2.81"/><path d="m118.77 63.27c-6.92-.22-12.5-1.06-12.44-3.52s5.7-3 12.63-2.81c2.34379.0495988 4.681957.2500131 7 .6 1.26.21.5.73 2.28 1.63 1.33.68 2.84.38 3.09.82.067841.1502824.092096.3166017.07.48-.1 2.31-5.7 3-12.63 2.81"/><path d="m134.77 29.27c-6.92-.22-12.5-1.06-12.44-3.52s5.7-3 12.63-2.81c2.34379.0495988 4.681957.2500131 7 .6 1.26.21.5.73 2.28 1.63 1.33.68 2.84.38 3.09.82.067841.1502824.092096.3166017.07.48-.1 2.31-5.7 3-12.63 2.81"/><path d="m118.67 39.28c6.92-.22 12.5-1.06 12.43-3.52s-5.7-3-12.62-2.81c-2.343812.0491832-4.682006.2495998-7 .6-1.26.21-.5.72-2.28 1.63-1.33.68-2.85.37-3.09.82-.072448.1488996-.096906.3166114-.07.48.09 2.32 5.69 3 12.62 2.81"/><path d="m58.77 56.27c-6.92-.22-12.5-1.06-12.44-3.52s5.7-3 12.63-2.81c2.3437902.0495988 4.6819574.2500131 7 .6 1.26.21.5.73 2.28 1.63 1.33.68 2.84.38 3.09.82.0678413.1502824.0920962.3166017.07.48-.1 2.31-5.7 3-12.63 2.81"/><path d="m57.77 32.27c-6.92-.22-12.5-1.06-12.44-3.52s5.7-3 12.63-2.81c2.3437902.0495988 4.6819574.2500131 7 .6 1.26.21.5.73 2.28 1.63 1.33.68 2.84.38 3.09.82.0678413.1502824.0920962.3166017.07.48-.1 2.31-5.7 3-12.63 2.81"/><path d="m133.67 65.28c6.92-.22 12.5-1.06 12.43-3.52s-5.7-3-12.62-2.81c-2.343812.0491832-4.682006.2495998-7 .6-1.26.21-.5.72-2.28 1.63-1.33.68-2.85.37-3.09.82-.072448.1488996-.096906.3166114-.07.48.09 2.32 5.69 3 12.62 2.81"/><path d="m122.67 33.28c6.92-.22 12.5-1.06 12.43-3.52s-5.7-3-12.62-2.81c-2.343812.0491832-4.682006.2495998-7 .6-1.26.21-.5.72-2.28 1.63-1.33.68-2.85.37-3.09.82-.072448.1488996-.096906.3166114-.07.48.09 2.32 5.69 3 12.62 2.81"/><path d="m54 59.69c-5.63-4-9.78-7.88-8.35-9.88s6.4.7 12 4.74c1.9312519 1.3580503 3.7687515 2.8447545 5.5 4.45.94.88 0 .88 1 2.62.73 1.31 2.16 1.91 2.11 2.42-.0284289.1601454-.1011813.3091147-.21.43-1.37 1.87-6.4-.7-12-4.73"/><path d="m69 35.69c-5.63-4-9.78-7.88-8.35-9.88s6.4.7 12 4.74c1.9312519 1.3580503 3.7687515 2.8447545 5.5 4.45.94.88 0 .88 1 2.62.73 1.31 2.16 1.91 2.11 2.42-.0284289.1601454-.1011813.3091147-.21.43-1.37 1.87-6.4-.7-12-4.73"/><path d="m97 58.69c-5.63-4-9.78-7.88-8.35-9.88s6.4.7 12 4.74c1.915971 1.3434178 3.740034 2.8133587 5.46 4.4.94.88 0 .88 1 2.62.73 1.31 2.16 1.91 2.11 2.42-.028429.1601454-.101181.3091147-.21.43-1.37 1.87-6.4-.7-12-4.73"/><path d="m100 29.69c-5.63-4-9.78-7.88-8.35-9.88s6.4.7 12 4.74c1.915971 1.3434178 3.740034 2.8133587 5.46 4.4.94.88 0 .88 1 2.62.73 1.31 2.16 1.91 2.11 2.42-.028429.1601454-.101181.3091147-.21.43-1.37 1.87-6.4-.7-12-4.73"/><path d="m104 47.69c-5.63-4-9.78-7.88-8.35-9.88s6.4.7 12 4.74c1.915971 1.3434178 3.740034 2.8133587 5.46 4.4.94.88 0 .88 1 2.62.73 1.31 2.16 1.91 2.11 2.42-.028429.1601454-.101181.3091147-.21.43-1.37 1.87-6.4-.7-12-4.73"/><path d="m102 21.69c-5.63-4-9.78-7.88-8.35-9.88s6.4.7 12 4.74c1.915971 1.3434178 3.740034 2.8133587 5.46 4.4.94.88 0 .88 1 2.62.73 1.31 2.16 1.91 2.11 2.42-.028429.1601454-.101181.3091147-.21.43-1.37 1.87-6.4-.7-12-4.73"/><path d="m101.43 30.69c5.62-4 9.78-7.88 8.35-9.88s-6.41.7-12 4.74c-1.9145405 1.345318-3.7384808 2.81516-5.46 4.4-.93.88 0 .88-1 2.62-.72 1.31-2.15 1.91-2.1 2.42.0238607.1615972.0972276.3118247.21.43 1.37 1.87 6.4-.69 12-4.73"/><path d="m44 51.27c-6.92.27-12.54-.19-12.65-2.64s5.48-3.39 12.4-3.69c2.333365-.1079912 4.6711803-.0712541 7 .11 1.28.12.56.69 2.39 1.47 1.37.58 2.87.17 3.14.6.0744954.145334.1122623.3067015.11.47.06 2.32-5.48 3.39-12.4 3.68"/><path d="m46 33.27c-6.92.27-12.54-.19-12.65-2.64s5.48-3.39 12.4-3.69c2.333365-.1079912 4.6711803-.0712541 7 .11 1.28.12.56.69 2.39 1.47 1.37.58 2.87.17 3.14.6.0744954.145334.1122623.3067015.11.47.06 2.32-5.48 3.39-12.4 3.68"/><path d="m85 45.27c-6.92.27-12.54-.19-12.65-2.64s5.48-3.39 12.4-3.69c2.333365-.1079912 4.6711803-.0712541 7 .11 1.28.12.56.69 2.39 1.47 1.37.58 2.87.17 3.14.6.0744954.145334.1122623.3067015.11.47.06 2.32-5.48 3.39-12.4 3.68"/><path d="m96 18.27c-6.92.27-12.54-.19-12.65-2.64s5.48-3.39 12.4-3.69c2.333365-.1079912 4.67118-.0712541 7 .11 1.28.12.56.69 2.39 1.47 1.37.58 2.87.17 3.14.6.074495.145334.112262.3067015.11.47.06 2.32-5.48 3.39-12.4 3.68"/><path d="m125.44 52.28c6.92.26 12.55-.19 12.65-2.65s-5.47-3.39-12.4-3.68c-2.333202-.1179706-4.671657-.0812235-7 .11-1.28.11-.56.68-2.39 1.46-1.38.59-2.87.18-3.15.61-.078947.1433795-.113738.3069003-.1.47-.07 2.32 5.47 3.39 12.4 3.69"/><path d="m145.44 40.28c6.92.26 12.55-.19 12.65-2.65s-5.47-3.39-12.4-3.68c-2.333202-.1179706-4.671657-.0812235-7 .11-1.28.11-.56.68-2.39 1.46-1.38.59-2.87.18-3.15.61-.078947.1433795-.113738.3069003-.1.47-.07 2.32 5.47 3.39 12.4 3.69"/><path d="m55 61.09c6.47 2.46 11.48 5.08 10.61 7.38s-6.36 1-12.85-1.45c-2.1976367-.8106108-4.341902-1.7591643-6.42-2.84-1.13-.61-.24-.85-1.63-2.28-1-1.08-2.57-1.29-2.66-1.79-.0084802-.1616417.0224041-.3229261.09-.47.85-2.16 6.37-1 12.86 1.45"/><path d="m63 33.09c6.47 2.46 11.48 5.08 10.61 7.38s-6.36 1-12.85-1.45c-2.1976367-.8106108-4.341902-1.7591643-6.42-2.84-1.13-.61-.24-.85-1.63-2.28-1-1.08-2.57-1.29-2.66-1.79-.0084802-.1616417.0224041-.3229261.09-.47.85-2.16 6.37-1 12.86 1.45"/><path d="m98 60.09c6.47 2.46 11.48 5.08 10.61 7.38s-6.36 1-12.85-1.45c-2.1976367-.8106108-4.341902-1.7591643-6.42-2.84-1.13-.61-.24-.85-1.63-2.28-1-1.08-2.57-1.29-2.66-1.79-.0084802-.1616417.0224041-.3229261.09-.47.85-2.16 6.37-1 12.86 1.45"/><path d="m86 24.09c6.47 2.46 11.48 5.08 10.61 7.38s-6.36 1-12.85-1.45c-2.1976367-.8106108-4.341902-1.7591643-6.42-2.84-1.13-.61-.24-.85-1.63-2.28-1-1.08-2.57-1.29-2.66-1.79-.0084802-.1616417.0224041-.3229261.09-.47.85-2.16 6.37-1 12.86 1.45"/><path d="m86 64.09c6.47 2.46 11.48 5.08 10.61 7.38s-6.36 1-12.85-1.45c-2.1976367-.8106108-4.341902-1.7591643-6.42-2.84-1.13-.61-.24-.85-1.63-2.28-1-1.08-2.57-1.29-2.66-1.79-.0084802-.1616417.0224041-.3229261.09-.47.85-2.16 6.37-1 12.86 1.45"/><path d="m81 29.09c6.47 2.46 11.48 5.08 10.61 7.38s-6.36 1-12.85-1.45c-2.1976367-.8106108-4.341902-1.7591643-6.42-2.84-1.13-.61-.24-.85-1.63-2.28-1-1.08-2.57-1.29-2.66-1.79-.0084802-.1616417.0224041-.3229261.09-.47.85-2.16 6.37-1 12.86 1.45"/><path d="m109.46 27.09c-6.46 2.46-11.46 5.08-10.62 7.38s6.37 1 12.86-1.45c2.195137-.8087748 4.33619-1.7573851 6.41-2.84 1.13-.61.25-.85 1.63-2.28 1-1.08 2.57-1.29 2.66-1.79.020097-.1654488-.011332-.3330695-.09-.48-.84-2.16-6.36-1-12.86 1.46"/><path d="m142.46 50.09c-6.46 2.46-11.46 5.08-10.62 7.38s6.37 1 12.86-1.45c2.195137-.8087748 4.33619-1.7573851 6.41-2.84 1.13-.61.25-.85 1.63-2.28 1-1.08 2.57-1.29 2.66-1.79.020097-.1654488-.011332-.3330695-.09-.48-.84-2.16-6.36-1-12.86 1.46"/><path d="m144.82 46.28c6.91-.58 12.45-1.72 12.25-4.17s-5.86-2.7-12.77-2.15c-2.352591.1808073-4.690886.5148495-7 1-1.25.28-.47.75-2.2 1.75-1.29.75-2.82.52-3.05 1-.040636.1608059-.040636.3291941 0 .49.21 2.31 5.85 2.7 12.77 2.14"/><path d="m83.46 69.09c-6.46 2.46-11.46 5.08-10.62 7.38s6.37 1 12.86-1.45c2.1951367-.8087748 4.3361903-1.7573851 6.41-2.84 1.13-.61.25-.85 1.63-2.28 1-1.08 2.57-1.29 2.66-1.79.0200966-.1654488-.0113322-.3330695-.09-.48-.84-2.16-6.36-1-12.86 1.46"/><path d="m84.46 35.09c-6.46 2.46-11.46 5.08-10.62 7.38s6.37 1 12.86-1.45c2.1951367-.8087748 4.3361903-1.7573851 6.41-2.84 1.13-.61.25-.85 1.63-2.28 1-1.08 2.57-1.29 2.66-1.79.0200966-.1654488-.0113322-.3330695-.09-.48-.84-2.16-6.36-1-12.86 1.46"/><path d="m118.46 39.09c-6.46 2.46-11.46 5.08-10.62 7.38s6.37 1 12.86-1.45c2.195137-.8087748 4.33619-1.7573851 6.41-2.84 1.13-.61.25-.85 1.63-2.28 1-1.08 2.57-1.29 2.66-1.79.020097-.1654488-.011332-.3330695-.09-.48-.84-2.16-6.36-1-12.86 1.46"/><path d="m97.46 9.09c-6.46 2.46-11.46 5.08-10.62 7.38s6.37 1 12.86-1.45c2.195137-.8087748 4.33619-1.7573851 6.41-2.84 1.13-.61.25-.85 1.63-2.28 1-1.08 2.57-1.29 2.66-1.79.020097-.16544885-.011332-.33306948-.09-.48-.84-2.16-6.36-1-12.86 1.46"/><path d="m54 35.2c-6.27-3-11.63-4.73-12.69-2.51s3.69 5.31 9.94 8.24c2.1078313 1.0184338 4.2789787 1.9002536 6.5 2.64 1.22.39.78-.41 2.77-.41 1.49 0 2.71 1 3.13.67.1297149-.0995782.2271241-.2352553.28-.39 1-2.11-3.71-5.27-10-8.25"/><path d="m38 63.09c6.47 2.46 11.48 5.08 10.61 7.38s-6.36 1-12.85-1.45c-2.1976367-.8106108-4.341902-1.7591643-6.42-2.84-1.13-.61-.24-.85-1.63-2.28-1-1.08-2.57-1.29-2.66-1.79-.0084802-.1616417.0224041-.3229261.09-.47.85-2.16 6.37-1 12.86 1.45"/><path d="m41.43 33.92c6.87-.86 12.51-.9 12.83 1.54s-5.16 3.85-12 4.75c-2.3206839.3118911-4.6585466.4788813-7 .5-1.29 0-.62-.64-2.51-1.25-1.42-.47-2.87.07-3.19-.33-.0833846-.1396648-.1314404-.2975624-.14-.46-.27-2.3 5.16-3.85 12-4.75"/><path d="m107 48.09c6.47 2.46 11.48 5.08 10.61 7.38s-6.36 1-12.85-1.45c-2.197637-.8106108-4.341902-1.7591643-6.42-2.84-1.13-.61-.24-.85-1.63-2.28-1-1.08-2.57-1.29-2.66-1.79-.0084802-.1616417.0224041-.3229261.09-.47.85-2.16 6.37-1 12.86 1.45"/><path d="m119 16.09c6.47 2.46 11.48 5.08 10.61 7.38s-6.36 1-12.85-1.45c-2.197637-.8106108-4.341902-1.7591643-6.42-2.84-1.13-.61-.24-.85-1.63-2.28-1-1.08-2.57-1.29-2.66-1.79-.00848-.1616417.022404-.3229261.09-.47.85-2.16 6.37-1 12.86 1.45"/><path d="m133.46 32.09c-6.46 2.46-11.46 5.08-10.62 7.38s6.37 1 12.86-1.45c2.195137-.8087748 4.33619-1.7573851 6.41-2.84 1.13-.61.25-.85 1.63-2.28 1-1.08 2.57-1.29 2.66-1.79.020097-.1654488-.011332-.3330695-.09-.48-.84-2.16-6.36-1-12.86 1.46"/><path d="m67.54 45.92c-5.66 4-10.63 6.68-12.05 4.68s2.74-5.83 8.39-9.85c1.8961602-1.378115 3.8803919-2.6307865 5.94-3.75 1.14-.6.84.27 2.8-.07 1.47-.26 2.5-1.42 3-1.21.1433553.0787009.2612991.1966447.34.34 1.32 1.9-2.74 5.82-8.39 9.85"/><path d="m64.54 22.92c-5.66 4-10.63 6.68-12.05 4.68s2.74-5.83 8.39-9.85c1.8961602-1.378115 3.8803919-2.6307865 5.94-3.75 1.14-.6.84.27 2.8-.07 1.47-.26 2.5-1.42 3-1.21.1433553.0787009.2612991.1966447.34.34 1.32 1.9-2.74 5.82-8.39 9.85"/><path d="m77.89 51.92c5.66 4 10.63 6.68 12 4.67s-2.74-5.82-8.39-9.84c-1.8800288-1.3762681-3.8475078-2.6289076-5.89-3.75-1.13-.6-.84.27-2.8-.08-1.47-.26-2.5-1.41-3-1.21-.1414696.0811893-.2588107.1985304-.34.34-1.32 1.91 2.74 5.83 8.39 9.86"/><path d="m77.89 15.92c5.66 4 10.63 6.68 12 4.67s-2.74-5.82-8.39-9.84c-1.8800288-1.37626813-3.8475078-2.62890757-5.89-3.75-1.13-.6-.84.27-2.8-.08-1.47-.26-2.5-1.41-3-1.21-.1414696.08118928-.2588107.19853039-.34.34-1.32 1.91 2.74 5.83 8.39 9.86"/><path d="m71.09 50.87c4.22-2.08 7.84-3.35 8.59-1.85s-2.46 3.61-6.68 5.71c-1.4178039.7207352-2.880877 1.3487209-4.38 1.88-.83.28-.54-.27-1.89-.25-1 0-1.83.68-2.12.5-.0910208-.0691152-.1604087-.1627888-.2-.27-.68-1.42 2.46-3.62 6.69-5.72"/><path d="m73.09 19.87c4.22-2.08 7.84-3.35 8.59-1.85s-2.46 3.61-6.68 5.71c-1.4178039.7207352-2.880877 1.3487209-4.38 1.88-.83.28-.54-.27-1.89-.25-1 0-1.83.68-2.12.5-.0910208-.0691152-.1604087-.1627888-.2-.27-.68-1.42 2.46-3.62 6.69-5.72"/><path d="m82.34 56.87c-4.23-2.08-7.85-3.35-8.59-1.86s2.46 3.62 6.68 5.72c1.4212276.7207505 2.8876279 1.3487305 4.39 1.88.83.28.54-.28 1.89-.25 1 0 1.83.68 2.12.49.0826785-.0707232.1477331-.1597453.19-.26.68-1.42-2.46-3.62-6.68-5.72"/><path d="m72.34 22.87c-4.23-2.08-7.85-3.35-8.59-1.86s2.46 3.62 6.68 5.72c1.4212276.7207505 2.8876279 1.3487305 4.39 1.88.83.28.54-.28 1.89-.25 1 0 1.83.68 2.12.49.0826785-.0707232.1477331-.1597453.19-.26.68-1.42-2.46-3.62-6.68-5.72"/><path d="m121.34 50.87c-4.23-2.08-7.85-3.35-8.59-1.86s2.46 3.62 6.68 5.72c1.421228.7207505 2.887628 1.3487305 4.39 1.88.83.28.54-.28 1.89-.25 1 0 1.83.68 2.12.49.082678-.0707232.147733-.1597453.19-.26.68-1.42-2.46-3.62-6.68-5.72"/><path d="m115.34 21.87c-4.23-2.08-7.85-3.35-8.59-1.86s2.46 3.62 6.68 5.72c1.421228.7207505 2.887628 1.3487305 4.39 1.88.83.28.54-.28 1.89-.25 1 0 1.83.68 2.12.49.082678-.0707232.147733-.1597453.19-.26.68-1.42-2.46-3.62-6.68-5.72"/><path d="m25.09 57.87c4.22-2.08 7.84-3.35 8.59-1.85s-2.46 3.61-6.68 5.71c-1.4178039.7207352-2.880877 1.3487209-4.38 1.88-.83.28-.54-.27-1.89-.25-1 0-1.83.68-2.12.5-.0910208-.0691152-.1604087-.1627888-.2-.27-.68-1.42 2.46-3.62 6.69-5.72"/><path d="m26.09 43.87c4.22-2.08 7.84-3.35 8.59-1.85s-2.46 3.61-6.68 5.71c-1.4178039.7207352-2.880877 1.3487209-4.38 1.88-.83.28-.54-.27-1.89-.25-1 0-1.83.68-2.12.5-.0910208-.0691152-.1604087-.1627888-.2-.27-.68-1.42 2.46-3.62 6.69-5.72"/><path d="m88.57 45.71c4.57 1.12 8.16 2.47 7.77 4.1s-4.21 1.19-8.8.08c-1.5420311-.3638144-3.0586041-.8281396-4.54-1.39-.82-.31-.24-.55-1.29-1.4-.78-.65-1.84-.65-1.94-1-.0303192-.1079108-.0303192-.2220892 0-.33.39-1.53 4.21-1.19 8.8-.08"/><path d="m92.57 14.71c4.57 1.12 8.16 2.47 7.77 4.1s-4.21 1.19-8.8.08c-1.5420311-.3638144-3.0586041-.8281396-4.54-1.39-.82-.31-.24-.55-1.29-1.4-.78-.65-1.84-.65-1.94-1-.0303192-.1079108-.0303192-.2220892 0-.33.39-1.53 4.21-1.19 8.8-.08"/><path d="m161.34 55.87c-4.23-2.08-7.85-3.35-8.59-1.86s2.46 3.62 6.68 5.72c1.421228.7207505 2.887628 1.3487305 4.39 1.88.82.28.53-.28 1.89-.25 1 0 1.82.68 2.11.49.088455-.067486.157461-.1571935.2-.26.68-1.42-2.46-3.62-6.68-5.72"/><path d="m150.34 38.87c-4.23-2.08-7.85-3.35-8.59-1.86s2.46 3.62 6.68 5.72c1.421228.7207505 2.887628 1.3487305 4.39 1.88.82.28.53-.28 1.89-.25 1 0 1.82.68 2.11.49.088455-.067486.157461-.1571935.2-.26.68-1.42-2.46-3.62-6.68-5.72"/></g><g fill="none"><path d="m75.5 77-13.58-9.66-2.15-1.81-4.46-3.43-6.58-8.33-.87-1.09c-.94-.57-2.44-.94-2.74-1.75-1-2.64-2-4.87-5.17-5.49-.62-.13-1.32-1.37-1.44-2.18-1.26-8.61-2.46-9.86-10.95-11l-1.44.22-1.59 1.72-1.53 1.13c-2.2 2.21-3.75 4.71-3.5 8l1.66 2.35c3.29 4.41 2.29 3.51 5.45 7.73 1 1.35 1 1.35 2.06 2.82.7402935 1.3156928 1.6702657 2.515222 2.76 3.56 4 3.88 9.32 6.69 14.06 9.46 5.326456 3.1056558 10.8104979 5.9327912 16.43 8.47l.66.27c.3687897.1479949.7503924.2618062 1.14.34 6.43 1.94 15.64 5.17 23.35 5.23z" fill="#f1a534"/><path d="m22.13 27.32c-3.94-5.56-.34-9.27 3.79-12.84l-.85-1.07-6.07 1.71-.63-.68c-.32-.36 6-6.35 6.4-6.82 1.15-1.33 3.06-4 1.77-5.78-1.5-2-5.5-1.06-7 .5-1.2158971 1.37748881-2.2263404 2.92346708-3 4.59-1.624507 3.4260305-2.0777713 7.2910751-1.29 11 .34 1.74 0 3.62-.09 5.44-.87-1.1-2.73-1.88-3.85-2.76-1.1928989-1.13243-2.61979884-1.9892527-4.18-2.51-1.4882556-.3338578-3.04832034-.0370474-4.31.82-.26.17-2.7 3.14-2.21 3.23 2 .35 4.07.67 6.09 1.07 1 .2 2.79.6 2.77.82-.26 4.43 4.17 3.64 6.06 5.6l7.43 6.59 1.52-1.16 1.52-1.68z" fill="#66ac46"/><path d="m96.58 10.39s-7 6-7.61 7.82c-1.85 5.8-1.71 13.7-1.27 19.73.89 12.23 6.79 26.08 16.74 33.6 4.535825 3.5502174 10.161444 5.4195342 15.92 5.29 7.64-.36 15.65-5.36 16.17-13.58.38-6-4.07-10.27-7.87-14.25-4.78-5-10.07-9.49-15-14.33-2.947057-3.0954704-4.915834-6.9912833-5.66-11.2-.52-2.74-1.37-9-4.34-11-2.15116-1.2693499-4.5840947-1.9841104-7.08-2.08z" fill="#40003f"/><path d="m108.34 23.22s.52-6.32-.38-9.13-2.15-5.09-3.94-6c-.992358-.41280293-2.083504-.52747754-3.14-.33-.199523-1.42136449-.020141-2.87021294.52-4.2.360218-.81175237.618841-1.66487162.77-2.54l-1.46-.12s-2.35 3.68-2.94 4.68c-.3493145.5968064-.815244 1.11715107-1.37 1.53-1.3478767.07545038-2.6397917.56428306-3.7 1.4-1.27 1.25-4 5.77-4.27 7.44-.1400243.9403198-.1601852 1.8946054-.06 2.84 0 0 4.91-5.18 7.57-5.18.312395.557338.5191951 1.1675676.61 1.8.49 2.91 1.45 4.72 3.55 6.25 0 0-.31-4.93.59-7 1.922057 1.0515154 3.62046 2.4679835 5 4.17.72 1.06 2.65 4.39 2.65 4.39z" fill="#66ac46"/><path d="m164.18 19.21s-5 1-5.14 1.12-11.24 10.86-11.24 10.86l-11.96 15.81-6.79 15.4-.46 11.29 3.2 8.33 3 4.07 4.79.39 3.1-4.18 9.23-8.41 8.79-11.49 7-13.37 3.15-9.79 1.17-11.36-1.51-3.12c-.209786-1.2105084-.818822-2.3159271-1.73-3.14-1.479289-.9025186-3.015886-1.7075617-4.6-2.41z" fill="#edb826"/><path d="m162.75 22.55c1.44.7 4.09-1.88 3.66.94-.55 1-1.72 2.49-2.37 2.55-2.06.19-2.39 2-3.55 3-2.08-1.64-1.46-4.88-2.76-6.81.5-.94.39-1.47.9-2.42.34-.05.76-1.29 1.51-.72l.44.58c.56.19 1.62 2.68 2.17 2.88z" fill="#eac657"/><path d="m156.63 22.69c1.31 1.94.35 4.74 2.44 6.38-.15.56-.29 1.12-.43 1.68l-2.24.11c-3.07.94-3.12.25-4.6-2.8.581886-2.5002068 2.405208-4.5273786 4.83-5.37z" fill="#f8dd64"/><path d="m152.72 33c1.45.7 4.09-1.88 3.67.94-.56 1-1.73 2.49-2.37 2.55-2.07.19-2.4 2-3.56 3-2.08-1.64-1.12-4.44-2.43-6.38-.025877-1.2139314.358122-2.4011586 1.09-3.37.34 0 1.12.44 1.46.39.56.15 1.59 2.63 2.14 2.87z" fill="#eac657"/><path d="m146.73 35.1c1.31 1.94 1 5.45 3.12 7.09-.14.56-.29 1.12-.43 1.68l-2.24.11c-3.07.94-3.94-.06-5.42-3.1.78-2.67 3.41-3.97 4.97-5.78z" fill="#f8dd64"/><path d="m142.21 42.73c.71 1.85 2 2.48 4.34 2.3-.18 1.1-.08 1.06-.66 1.36-1.84.94-1.48 2.75-2.2 4.09-2.54-.76-2.68-3.71-4.61-5 .13-1.07.25-2.13.38-3.19l.9-.53c.56-.05 1.26.99 1.85.97z" fill="#d8a51f"/><path d="m138.85 47.22c1.93 1.31 2.07 4.27 4.61 5 .07.57.15 1.14.22 1.71l-2 .93c-2.51 2-3.27 1.67-5.76-.62-.31-2.73.81-4.97 2.93-7.02z" fill="#f8dd64"/><path d="m136.75 58.84c1.6.14 3.11-3.24 3.76-.46-.18 1.09-.7 3-1.27 3.24-1.85.94-1.49 2.74-2.2 4.09-2.54-.76-3.25-4-5.18-5.33.13-1.06.53-2.1.65-3.16.3-.18.89-.08 1.19-.25.56-.03 2.46 1.9 3.05 1.87z" fill="#eac657"/><path d="m132.11 74.12c1.6.13 3.11-3.25 3.76-.47-.17 1.1-.7 2.95-1.27 3.24-1.85.94-1.49 2.75-2.2 4.1-2.54-.75-3.15-4-5.09-5.31.13-1.07-.16-1.52 0-2.58.3-.17.24-1.48 1.14-1.23l.63.38c.54-.03 2.44 1.89 3.03 1.87z" fill="#f8dd64"/><path d="m154.78 43.56c-1.3-.93-2.07-3.32-4.35-1.6-.58.94-1.85 2.19-1.59 2.78.81 1.91-.63 3.06-1 4.55 2.43 1.06 4.44-1.12 6.77-.9l1.76-2.68-.35-1z" fill="#f8dd64"/><path d="m152.33 49.93c-2.12-.22-3.94 1.72-6.16.77l-1.16 1 .9 1.82c.6 2.83 1.32 3 4.4 2.92 1.692145-1.7122566 2.445644-4.1406108 2.02-6.51z" fill="#f1cf51"/><path d="m145.47 57.74c-1-.84 0-4.38-2-2.57-.52 1-1.29 2.73-1.12 3.3.58 1.82-.7 3-1 4.51 2 .89 4.29-1.26 6.22-1.17.54-.91.9-2 1.45-2.87-.08-.31-.5-.59-.57-.9-.37-.35-2.63.06-2.98-.3z" fill="#f8dd64"/><path d="m141 65c-.88-.71 0-3.7-1.69-2.17-.533515.8406962-.855998 1.7978551-.94 2.79.48 1.54-.6 2.57-.9 3.82 1.67.76 3.63-1.06 5.27-1 .45-.77.76-1.66 1.22-2.43-.06-.26-.41-.5-.48-.76-.27-.25-2.18.04-2.48-.25z" fill="#f1cf51"/><path d="m167.28 34.1c-1.4-.79-.78-4.43-2.87-2.48-.46 1-1.06 2.84-.74 3.4 1 1.81-.3 3.11-.45 4.63 2.53.78 4.29-1.6 6.63-1.63 1.009758-.6709296 1.766467-1.6599304 2.15-2.81-.16-.31-1-.67-1.15-1-.47-.33-3.1.23-3.57-.11z" fill="#f1cf51"/><path d="m167.7 40.81c-2.33 0-5.06 2.25-7.6 1.46l-1.1 1.31 1.19 1.9c1 3.06 2.28 3.22 5.63 2.69 1.71-2.17 1.28-5.05 1.88-7.36z" fill="#f8dd64"/><path d="m163.31 49.28c-1.93.47-3.17-.23-4.36-2.26-.8.76-.83.66-.74 1.3.28 2.06-1.42 2.79-2.12 4.14 2.06 1.66 4.58.09 6.76.93l2.41-2.12-.08-1c-.3-.51-1.56-.49-1.87-.99z" fill="#eac657"/><path d="m161.45 53.86c-2.18-.84-4.69.73-6.76-.93l-1.54.79.4 2.2c-.22 3.21.48 3.64 3.78 4.39 2.42-1.31 3.67-3.54 4.12-6.45z" fill="#d8a51f"/><path d="m160.29 38.16c-1.8-.69-3.86.6-5.57-.76l-1.26.65.33 1.82c-.18 2.63.4 3 3.11 3.61 1.924309-1.1202788 3.187464-3.1025762 3.39-5.32z" fill="#d8a51f"/><path d="m153.14 60.76c-.93-1.19 1-4.33-1.57-3.23-.79.77-2 2.26-1.95 2.89.2 2-1.44 2.76-2.15 4.11 1.92 1.56 4.9.22 7 1 .79-.71 1.42-1.63 2.21-2.35 0-.34-.4-.75-.42-1.08-.26-.49-2.84-.87-3.12-1.34z" fill="#f1cf51"/><path d="m144.64 72.53c-1-1.25.9-4.4-1.75-3.36-.81.77-2 2.24-1.95 2.89.28 2.06-1.41 2.79-2.12 4.14 2.07 1.66 5.08.32 7.27 1.15.8-.7 1.34-.72 2.14-1.42 0-.35 1.09-1 .37-1.63l-.66-.31c-.32-.5-2.94-.99-3.3-1.46z" fill="#eac657"/><path d="m153.48 66.69c-2.19-.84-5.19.33-7.25-1.33l-1.55.79.4 2.2c-.22 3.21.64 3.76 3.95 4.5 2.401539-1.2019439 4.063424-3.5024411 4.45-6.16z" fill="#f8dd64"/><path d="m143.51 78.26c-2.18-.84-4.7.73-6.77-.93l-1.54.78.39 2.21c-.21 3.21.47 3.1 3.77 3.85 2.310766-1.1215566 3.879587-3.3557087 4.15-5.91z" fill="#f1cf51"/><path d="m168.28 25.57c-.76 4.31-8.77 32.29-11.7 37.13-.53.86-16 22-17.71 23.35-.014646.0343059-.031343.0676996-.05.1-.864689.0015146-1.725682-.1128362-2.56-.34-5.68-5.67-8.56-12.2-5.58-20.4 1.53-4.22 3.27-8.36 4.92-12.54 1.09-4.54 19.86-30.48 26.06-32.55l5.43-10.08c-7.588418 4.8963041-14.579096 10.6620193-20.83 17.18-13 13.14-18.84 29.2-20.22 47.19-.082453 3.0176277.302088 6.0298656 1.14 8.93.245478.7570223.699533 1.4294398 1.31 1.94.122121.8570655.077984 1.7296324-.13 2.57-.278871.8833863-.612859 1.7484169-1 2.59-.267136.9426653.214439 1.9359149 1.12 2.31l2.13 1.2c.843333.5505672 1.940099.5186613 2.75-.08 1.376188-1.2017151 2.598766-2.568719 3.64-4.07.733402-1.0964263 1.592577-2.1032721 2.56-3 1.37 0 2.85.18 3.5-.5 6.48-6.68 13.37-12.85 18.57-20.9 9.14-14.15 11.63-29.36 10.9-47.09z" fill="#66ac46"/><path d="m63.19 76 5.81-1.33s.42-.52 1.07-1.51l-8.18-5.82-2.15-1.82-4.46-3.41-6.57-8.33-.88-1.09c-.94-.57-2.43-.94-2.74-1.75-1-2.64-2-4.87-5.17-5.49-.62-.12-1.32-1.37-1.44-2.18-.06-.39-.12-.76-.17-1.13 1.07 24.47 24.88 33.86 24.88 33.86z" fill="#d9851d"/><path d="m68.78 76.27s-30.09-8.93-29.41-39.66c.43-19.1 9.2-29.08 9.2-29.08s26.74 3.92 31.5 22.88c6.62 26.32-5.31 43.92-5.31 43.92z" fill="#66ac46"/><path d="m74.34 91-10.22-31.72-14.76 1.06 13.93-3.2-2.55-9.14-10.37.31 9.85-2.09-2.61-9-7.78-1.32 7.17-1.25-3.32-15.56 6.26 14.41 5.84-5-4.51 7.67 3.21 8.52 6.73-6.69-5.94 9.12 2.82 8.06 8-9.37-7 12.27 11.83 31.25z" fill="#ddf5c4"/><path d="m104.09 50.72c.302724 2.6453036.838131 5.2587593 1.6 7.81 1.132476 3.9585726 3.188901 7.5915914 6 10.6 1.66 1.82 3.11 3.78 3.32 5.9 6.3-6.31 7.9-16.32.31-22.93-.72-.64-3.86-3.13-4.61-3.81-2.27 0-4.53 0-6.8-.09.09.8.09 1.7.18 2.52z" fill="#36033a"/><path d="m113.84 39.72-2.44.48-8.81 5.87c1.167444.0392347 2.161586.8608392 2.42 2l3.41-.8 6-7z" fill="#36033a"/><path d="m78.48 67.36c-.63-4.12 2.19-5.83 3.55-9.74.85-2.44.7-4.86 1-7.33-1.638789.4111729-3.1547147 1.2102921-4.42 2.33-2.4574635 2.5086349-3.9456616 5.8074741-4.2 9.31-.1029683 3.4643756.7517123 6.8900186 2.47 9.9.74-.91 1.77-3.28 1.6-4.47z" fill="#428941"/><path d="m111.5 50c-.86-.44-4.5-2.09-5.4-2.57-3.18.74-6.35 1.53-9.54 2.21-1.2935933.3976431-2.6554156.5236117-4 .37-3.29-.76-6.46-.11-9.67.31-.75.1-2.5 1.58-3.36 2.61-2.5038367 2.9154455-3.9796184 6.5732758-4.2 10.41-.3898842 5.2821724 1.4906593 10.4800384 5.17 14.29 3.7 3.61 12.16 5.12 17.25 5.43 5.52.33 11.44-2.67 15.4-6.33 8.21-7.58 9.18-21.2-1.65-26.73z" fill="#d34025"/><path d="m105.93 48c-3.18.74-6.35 1.53-9.55 2.21-1.276542.3970182-2.6219333.5230422-3.95.37-3.3-.76-6.46-.11-9.67.31-1.55-1.46-1.51-2.5.8-2.85 1.72-.27 3.46-.44 5.24-.66-.54-2.11-1.08-4.2-1.62-6.3l1-.44c.85.73 1.67 1.49 2.55 2.18 1 .81 2 2.64 3.35.18.8770895.2874445 1.7383013.6212475 2.58 1l2.21-3.41c.19 2.55.32 4.28.49 6.62l9.55-6.35 2.44-.48.54.61c-1.98 2.3333333-3.966667 4.67-5.96 7.01z" fill="#66ac46"/></g><path d="m38.48 71.53c-5.63-.07-10.18-.68-10.1600657-2.68.0200657-2 4.5900657-2.52 10.2200657-2.46 1.9029474.0017569 3.8037182.1286977 5.69.38 1 .15.42.58 1.87 1.29 1.09.54 2.32.27 2.53.62.0593023.1208398.0802382.2569232.06.39 0 1.89-4.58 2.52-10.22 2.47" fill="#faf9f0" stroke="#f4f1e9" stroke-linejoin="round" stroke-width=".5"/><path d="m50.77 76.27c-6.92-.22-12.5-1.06-12.44-3.52s5.7-3 12.63-2.81c2.3437902.0495988 4.6819574.2500131 7 .6 1.26.21.5.73 2.28 1.63 1.33.68 2.84.38 3.09.82.0678413.1502824.0920962.3166017.07.48-.1 2.31-5.7 3-12.63 2.81" fill="#faf9f0" stroke="#f4f1e9" stroke-linejoin="round" stroke-width=".5"/><path d="m78 71.2c-6.27-3-11.63-4.73-12.69-2.51s3.72 5.26 10 8.24c2.1078313 1.0184338 4.2789787 1.9002536 6.5 2.64 1.22.39.78-.41 2.77-.41 1.49 0 2.71 1 3.13.67.1297149-.0995782.2271241-.2352553.28-.39 1-2.11-3.71-5.27-10-8.25" fill="#faf9f0" stroke="#f4f1e9" stroke-linejoin="round" stroke-width=".5"/><path d="m151.46 62.09c-6.48 2.46-11.48 5.08-10.62 7.38s6.37 1 12.86-1.45c2.195137-.8087748 4.33619-1.7573851 6.41-2.84 1.13-.61.25-.85 1.63-2.28 1-1.08 2.57-1.29 2.66-1.79.020097-.1654488-.011332-.3330695-.09-.48-.84-2.16-6.36-1-12.86 1.46" fill="#faf9f0" stroke="#f4f1e9" stroke-linejoin="round" stroke-width=".5"/><path d="m121.46 67.09c-6.48 2.46-11.48 5.08-10.62 7.38s6.37 1 12.86-1.45c2.195137-.8087748 4.33619-1.7573851 6.41-2.84 1.13-.61.25-.85 1.63-2.28 1-1.08 2.57-1.29 2.66-1.79.020097-.1654488-.011332-.3330695-.09-.48-.84-2.16-6.36-1-12.86 1.46" fill="#faf9f0" stroke="#f4f1e9" stroke-linejoin="round" stroke-width=".5"/><path d="m116.43 70.69c5.62-4 9.78-7.88 8.35-9.88s-6.41.7-12 4.74c-1.914541 1.345318-3.738481 2.81516-5.46 4.4-.93.88 0 .88-1 2.62-.72 1.31-2.15 1.91-2.1 2.42.023861.1615972.097228.3118247.21.43 1.37 1.87 6.4-.69 12-4.73" fill="#faf9f0" stroke="#f4f1e9" stroke-linejoin="round" stroke-width=".5"/><path d="m134.67 76.28c6.92-.22 12.5-1.06 12.43-3.52s-5.7-3-12.62-2.81c-2.343812.0491832-4.682006.2495998-7 .6-1.26.21-.5.72-2.28 1.63-1.33.68-2.85.37-3.09.82-.072448.1488996-.096906.3166114-.07.48.09 2.32 5.69 3 12.62 2.81" fill="#faf9f0" stroke="#f4f1e9" stroke-linejoin="round" stroke-width=".5"/><path d="m93.77 76.27c-6.92-.22-12.5-1.06-12.44-3.52s5.7-3 12.63-2.81c2.3437902.0495988 4.6819574.2500131 7 .6 1.26.21.5.73 2.28 1.63 1.33.68 2.84.38 3.09.82.067841.1502824.092096.3166017.07.48-.1 2.31-5.7 3-12.63 2.81" fill="#faf9f0" stroke="#f4f1e9" stroke-linejoin="round" stroke-width=".5"/><path d="m64.69 71c5.45 1.44 9.71 3.13 9.21 5.06s-5.06 1.33-10.51-.08c-1.8319398-.4685098-3.6322381-1.0530222-5.39-1.75-1-.4-.27-.67-1.5-1.71-.93-.78-2.19-.81-2.3-1.21-.0399194-.1269355-.0399194-.2630645 0-.39.49-1.82 5.06-1.34 10.51.08" fill="#faf9f0" stroke="#f4f1e9" stroke-linejoin="round" stroke-width=".5"/><path d="m138.27 69.45c3.92-2.33 6.86-4.6 6-6s-4.23.09-8.16 2.41c-1.331694.7716704-2.611128 1.6301944-3.83 2.57-.67.53-.07.58-.8 1.67-.54.81-1.52 1.12-1.52 1.46.009805.1065647.05164.2076651.12.29.79 1.31 4.23-.09 8.16-2.41" fill="#faf9f0" stroke="#f4f1e9" stroke-linejoin="round" stroke-width=".5"/></g></g><path d="m94.51 110.64c5.3333333 0 10.666667-.196667 16-.59 0 1.48 0 3-.07 4.43-3.37.25-6.74.41-10.12.5v6.58c3.113333-.08 6.23-.226667 9.35-.44l-.08 4.41c-3.1.22-6.21.36-9.31.45l-.07 10.08c-1.89.06-3.78.09-5.66.09-.04-8.5-.0533333-17.003333-.04-25.51zm-16.51 24.96c-1.3333333-4.56-2.6666667-9.13-4-13.71-.15-.49-.4-1.5-.77-3s-.58-2.55-.64-3.07c-.06.62-.22 1.62-.48 3-.27 1.36-.48 2.34-.63 2.91-1.1266667 4.34-2.2333333 8.673333-3.32 13-2.17-.25-4.33-.53-6.5-.84-2.5933333-8.853333-5.26-17.75-8-26.69 1.92.34 3.84.65 5.76.93 1.3333333 4.84 2.6666667 9.663333 4 14.47.69 2.65 1.21 4.94 1.54 6.86 0-.65.19-1.65.42-3 .1559627-1.05832.3729916-2.106737.65-3.14 1.18-4.62 2.3833333-9.24 3.61-13.86 1.86.186667 3.72.356667 5.58.51 1.4466667 4.88 2.8733333 9.74 4.28 14.58.19.65.43 1.64.71 3s.5 2.47.64 3.42c.11-.9.29-2 .55-3.35s.5-2.43.71-3.26c1.1-4.58 2.2233333-9.166667 3.37-13.76 1.94.07 3.88.12 5.82.14-2.3133333 8.406667-4.58 16.826667-6.8 25.26-2.18-.1-4.36-.223333-6.54-.37zm37-25.9c2.96-.266667 5.916667-.6 8.87-1 3.37-.43 5.9-.16 7.59.89s2.47 2.88 2.34 5.54c-.036998 2.573796-1.120115 5.021641-3 6.78-2.219403 1.916576-4.988085 3.082153-7.91 3.33l-2.48.3-.26 9.08c-1.906667.22-3.816667.416667-5.73.59.2-8.506667.396667-17.016667.59-25.53zm8.43 3.5-2.66.33c-.07 2.53-.15 5.05-.22 7.58l1.91-.23c1.452143-.109753 2.841432-.637682 4-1.52.897343-.770012 1.421607-1.887712 1.44-3.07.156121-.99775-.223644-2.004128-1-2.65-.656044-.3938-1.416386-.578654-2.18-.53-.43 0-.87 0-1.3.09z" fill="#0a6eb0" fill-rule="nonzero"/></g></svg>