<svg height="101" viewBox="0 0 155 101" width="155" xmlns="http://www.w3.org/2000/svg"><g fill="none"><path d="m44.32 87.42s-2 13.26 32.91 13.26 32.92-13.26 32.92-13.26z" fill="#dde7f3"/><path d="m.44 19.54c0-10.79 34.4-19.54 76.83-19.54s76.83 8.75 76.83 19.54 4.72 74.81-76.83 74.81c-80.34 0-76.83-74.79-76.83-74.81z" fill="#f7f7f7"/><path d="m.45 19.54s-4.72 74.8101074 76.82 74.8101074c5.1099089.0068795 10.214587-.3271963 15.28-1.0001074-60.5 4-73.08-38.82-75.63-59.7-11.09-3.96-16.47-9.05-16.47-14.11z" fill="#f0f0f0"/><path d="m136.57 39.86c-4.11 16.34-13.91 36.71-37.08 48.45 7.719118-1.8577305 15.1291-4.8217232 22-8.8 3.635093-2.1256917 6.900921-4.8275137 9.67-8 10.17-11.67 14.75-25.42 16.79-36.25-3.637967 1.8927175-7.448658 3.4330673-11.38 4.6z" fill="#fff"/><g fill="#0a6eb0"><path d="m150.15 18.21c2.47 9.14-30 18.6-73.24 18.6-43 0-75.53-9.42-73.23-18.6 2.32-9.39 32.79-17.15 73.23-17.15s70.79 8.08 73.24 17.15z"/><path d="m78.51 51.64c5.3333333 0 10.6666667-.1966667 16-.59 0 1.48 0 3-.07 4.43-3.37.25-6.74.41-10.12.5v6.58c3.1133333-.08 6.23-.2266667 9.35-.44l-.08 4.41c-3.1.22-6.21.36-9.31.45l-.07 10.08c-1.89.06-3.78.09-5.66.09-.04-8.5-.0533333-17.0033333-.04-25.51zm-16.51 24.96c-1.3333333-4.56-2.6666667-9.13-4-13.71-.15-.49-.4-1.5-.77-3s-.58-2.55-.64-3.07c-.06.62-.22 1.62-.48 3-.27 1.36-.48 2.34-.63 2.91-1.1266667 4.34-2.2333333 8.6733333-3.32 13-2.17-.25-4.33-.53-6.5-.84-2.5933333-8.8533333-5.26-17.75-8-26.69 1.92.34 3.84.65 5.76.93 1.3333333 4.84 2.6666667 9.6633333 4 14.47.69 2.65 1.21 4.94 1.54 6.86 0-.65.19-1.65.42-3 .1559627-1.0583204.3729916-2.1067369.65-3.14 1.18-4.62 2.3833333-9.24 3.61-13.86 1.86.1866667 3.72.3566667 5.58.51 1.4466667 4.88 2.8733333 9.74 4.28 14.58.19.65.43 1.64.71 3s.5 2.47.64 3.42c.11-.9.29-2 .55-3.35s.5-2.43.71-3.26c1.1-4.58 2.2233333-9.1666667 3.37-13.76 1.94.07 3.88.12 5.82.14-2.3133333 8.4066667-4.58 16.8266667-6.8 25.26-2.18-.1-4.36-.2233333-6.54-.37zm37-25.9c2.96-.2666667 5.916667-.6 8.87-1 3.37-.43 5.9-.16 7.59.89s2.47 2.88 2.34 5.54c-.036998 2.573796-1.120115 5.0216407-3 6.78-2.219403 1.9165764-4.988085 3.0821533-7.91 3.33l-2.48.3-.26 9.08c-1.906667.22-3.816667.4166667-5.73.59.2-8.5066667.3966667-17.0166667.59-25.53zm8.43 3.5-2.66.33c-.07 2.53-.15 5.05-.22 7.58l1.91-.23c1.452143-.1097528 2.841432-.6376824 4-1.52.897343-.7700117 1.421607-1.8877122 1.44-3.07.156121-.9977503-.223644-2.0041281-1-2.65-.656044-.3938003-1.416386-.5786541-2.18-.53-.43 0-.87 0-1.3.09z"/></g></g></svg>