<svg height="102" viewBox="0 0 155 102" width="155" xmlns="http://www.w3.org/2000/svg" xmlns:xlink="http://www.w3.org/1999/xlink"><mask id="a" fill="#fff"><path d="m166.21 77.26c2.46 9.13-30 18.57-73.2 18.57-30.53 0-55.83-4.69-67.37-10.89-4.6-2.42-6.63-5.13-6-7.79s-18.99-1.26-19.04-11.34c0-7.78 0-57.57 0-64.9h183.4v64.9c0 10.92-18.32 9.51-17.79 11.45z" fill="#fff" fill-rule="evenodd"/></mask><g fill="none" fill-rule="nonzero" transform="translate(-16 -58)"><path d="m60.32 146.42s-2 13.26 32.91 13.26 32.92-13.26 32.92-13.26z" fill="#dde7f3"/><path d="m16.44 78.54c0-10.79 34.4-19.54 76.83-19.54s76.83 8.75 76.83 19.54 4.72 74.81-76.83 74.81c-80.34 0-76.83-74.79-76.83-74.81z" fill="#f7f7f7"/><path d="m16.44 78.54s-4.71 74.810107 76.83 74.810107c5.1099089.00688 10.214587-.327196 15.28-1.000107-60.5 4-73.08-38.82-75.63-59.7-11.09-3.96-16.48-9.05-16.48-14.11z" fill="#f0f0f0"/><path d="m152.57 98.86c-4.11 16.34-13.91 36.71-37.08 48.45 7.719118-1.85773 15.1291-4.821723 22-8.8 3.635093-2.125692 6.900921-4.827514 9.67-8 10.17-11.67 14.75-25.42 16.79-36.25-3.637967 1.8927175-7.448658 3.4330673-11.38 4.6z" fill="#fff"/><path d="m166.15 77.21c2.47 9.14-30 18.6-73.24 18.6-43 0-75.53-9.42-73.23-18.6 2.32-9.39 32.79-17.15 73.23-17.15s70.79 8.08 73.24 17.15z" fill="#0a6eb0"/><g fill="#faf9f0" mask="url(#a)" stroke="#f4f1e9" stroke-linejoin="round" stroke-width=".5"><g transform="translate(21 58)"><path d="m32.16 33.46c-3.92-2.34-6.86-4.61-6-6s4.24.09 8.17 2.41c1.3296316.7786344 2.6088369 1.6403445 3.83 2.58.66.52.06.57.79 1.66.55.82 1.52 1.12 1.53 1.46-.0123178.1073176-.0500254.2101566-.11.3-.8 1.3-4.24-.09-8.17-2.42"/><path d="m75.16 32.46c-3.92-2.34-6.86-4.61-6-6s4.24.09 8.17 2.41c1.3296316.7786344 2.6088369 1.6403445 3.83 2.58.66.52.06.57.79 1.66.55.82 1.52 1.12 1.53 1.46-.0123178.1073176-.0500254.2101566-.11.3-.8 1.3-4.24-.09-8.17-2.42"/><path d="m119.27 31.45c3.92-2.33 6.86-4.6 6-6s-4.23.09-8.16 2.41c-1.331694.7716704-2.611128 1.6301944-3.83 2.57-.67.53-.07.58-.8 1.67-.54.81-1.52 1.12-1.52 1.46.009805.1065647.05164.2076651.12.29.79 1.31 4.23-.09 8.16-2.41"/><path d="m54.74 28.16c-1.24 5.49-2.74 9.84-4.74 9.37s-1.51-5-.29-10.51c.3992071-1.8589143.9203335-3.6895377 1.56-5.48.36-1 .65-.29 1.65-1.56.75-1 .74-2.22 1.13-2.35.1275943-.0353686.2624057-.0353686.39 0 1.84.43 1.52 5 .29 10.51"/><path d="m82.69 27.16c1.24 5.49 2.78 9.81 4.73 9.38s1.52-5 .29-10.51c-.3992031-1.8621904-.9203255-3.6961403-1.56-5.49-.36-1-.66-.29-1.65-1.56-.75-1-.74-2.22-1.14-2.34-.1276613-.034873-.2623387-.034873-.39 0-1.83.44-1.51 5-.28 10.51"/><path d="m33.74 12.16c-1.24 5.49-2.74 9.84-4.74 9.37s-1.51-5-.29-10.51c.3992071-1.85891428.9203335-3.68953766 1.56-5.48.36-1 .65-.29 1.65-1.56.75-1 .74-2.22 1.13-2.35.1275943-.03536863.2624057-.03536863.39 0 1.84.43 1.52 5 .29 10.51"/><path d="m92.74 12.16c-1.24 5.49-2.74 9.84-4.74 9.37s-1.51-5-.29-10.51c.3992071-1.85891428.9203335-3.68953766 1.56-5.48.36-1 .65-.29 1.65-1.56.75-1 .74-2.22 1.13-2.35.1275943-.03536863.2624057-.03536863.39 0 1.84.43 1.52 5 .29 10.51"/><path d="m76.74 11.16c-1.24 5.49-2.74 9.84-4.74 9.37s-1.51-5-.29-10.51c.3992071-1.85891428.9203335-3.68953766 1.56-5.48.36-1 .65-.29 1.65-1.56.75-1 .74-2.22 1.13-2.35.1275943-.03536863.2624057-.03536863.39 0 1.84.43 1.52 5 .29 10.51"/><path d="m49.41 19.73c4.33 3.61 7.48 6.94 6.21 8.48s-5.15-.93-9.5-4.52c-1.4738308-1.2038109-2.8699573-2.499737-4.18-3.88-.7-.76 0-.71-.64-2.18-.51-1.1-1.64-1.66-1.57-2.07.0308944-.1286366.0966332-.2462745.19-.34 1.22-1.44 5.15.92 9.5 4.51"/><path d="m101 17.73c-4.32 3.61-7.48 6.94-6.2 8.48s5.15-.93 9.49-4.52c1.476072-1.2012357 2.872359-2.4973109 4.18-3.88.71-.76 0-.72.65-2.18.51-1.1 1.63-1.66 1.57-2.07-.030448-.1310715-.100232-.2497047-.2-.34-1.22-1.44-5.15.92-9.49 4.51"/><path d="m15.41 13.73c4.33 3.61 7.48 6.94 6.21 8.48s-5.15-.93-9.5-4.52c-1.4738308-1.2038109-2.86995734-2.499737-4.18-3.88-.7-.76 0-.71-.64-2.18-.51-1.1-1.64-1.66-1.57-2.07.03089439-.12863658.09663321-.24627447.19-.34 1.22-1.44 5.15.92 9.5 4.51"/><path d="m20.49 14.29c3.61-4.29 6.94-7.48 8.51-6.21s-.93 5.15-4.52 9.5c-1.1985605 1.4752598-2.4948083 2.8683921-3.88 4.17-.76.71-.71 0-2.18.65-1.1.51-1.66 1.64-2.07 1.57-.1286366-.0308944-.2462745-.0966332-.34-.19-1.44-1.22.93-5.16 4.51-9.5"/><path d="m59.49 16.29c3.61-4.29 6.94-7.48 8.51-6.21s-.93 5.15-4.52 9.5c-1.1985605 1.4752598-2.4948083 2.8683921-3.88 4.17-.76.71-.71 0-2.18.65-1.1.51-1.66 1.64-2.07 1.57-.1286366-.0308944-.2462745-.0966332-.34-.19-1.44-1.22.93-5.16 4.51-9.5"/><path d="m15.48 31.53c-5.63-.07-10.18-.68-10.16006568-2.68.02006568-2 4.59006568-2.52 10.22006568-2.46 1.9029474.0017569 3.8037182.1286977 5.69.38 1 .15.42.58 1.87 1.29 1.09.54 2.32.27 2.53.62.0593023.1208398.0802382.2569232.06.39 0 1.89-4.58 2.52-10.22 2.47"/><path d="m132 31.53c5.63-.07 10.18-.68 10.160066-2.68-.020066-2-4.590066-2.52-10.220066-2.46-1.90297.0010891-3.803785.1280328-5.69.38-1 .15-.43.58-1.88 1.29-1.09.54-2.32.27-2.52.62-.056955.1216679-.081087.2561195-.07.39.05 1.89 4.59 2.52 10.23 2.47"/><path d="m41.05 28.86c3.6-4.32 6.94-7.48 8.47-6.2s-.92 5.15-4.51 9.49c-1.2039922 1.4736728-2.499908 2.8697883-3.88 4.18-.77.71-.72 0-2.19.64-1.1.51-1.66 1.64-2.07 1.58-.1295392-.034203-.2471673-.103396-.34-.2-1.44-1.22.93-5.15 4.52-9.49"/><path d="m106.38 28.86c-3.6-4.33-6.94-7.48-8.48-6.2s.93 5.15 4.52 9.49c1.201236 1.4760717 2.497311 2.8723588 3.88 4.18.77.71.72 0 2.19.64 1.1.51 1.66 1.64 2.07 1.58.128422-.0368442.245402-.1056559.34-.2 1.44-1.22-.93-5.15-4.52-9.49"/><path d="m20.05 22.86c3.6-4.32 6.94-7.48 8.47-6.2s-.92 5.15-4.51 9.49c-1.2039922 1.4736728-2.499908 2.8697883-3.88 4.18-.77.71-.72 0-2.19.64-1.1.51-1.66 1.64-2.07 1.58-.1295392-.034203-.2471673-.103396-.34-.2-1.44-1.22.93-5.15 4.52-9.49"/><path d="m63.05 21.86c3.6-4.32 6.94-7.48 8.47-6.2s-.92 5.15-4.51 9.49c-1.2039922 1.4736728-2.499908 2.8697883-3.88 4.18-.77.71-.72 0-2.19.64-1.1.51-1.66 1.64-2.07 1.58-.1295392-.034203-.2471673-.103396-.34-.2-1.44-1.22.93-5.15 4.52-9.49"/><path d="m88.05 9.86c3.6-4.32 6.94-7.48 8.47-6.2s-.92 5.15-4.51 9.49c-1.2039922 1.4736728-2.499908 2.8697883-3.88 4.18-.77.71-.72 0-2.19.64-1.1.51-1.66 1.64-2.07 1.58-.1295392-.034203-.2471673-.103396-.34-.2-1.44-1.22.93-5.15 4.52-9.49"/><path d="m128.38 19.86c-3.6-4.32-6.94-7.48-8.48-6.2s.93 5.15 4.52 9.49c1.201236 1.4760717 2.497311 2.8723588 3.88 4.18.77.71.72 0 2.19.64 1.1.51 1.66 1.64 2.07 1.58.128422-.0368442.245402-.1056559.34-.2 1.44-1.22-.93-5.15-4.52-9.49"/><path d="m108.46 17.09c-6.46 2.46-11.46 5.08-10.62 7.38s6.37 1 12.86-1.45c2.195137-.8087748 4.33619-1.7573851 6.41-2.84 1.13-.61.25-.85 1.63-2.28 1-1.08 2.57-1.29 2.66-1.79.020097-.1654488-.011332-.3330695-.09-.48-.84-2.16-6.36-1-12.86 1.46"/><path d="m31.77 38.27c-6.92-.22-12.5-1.06-12.44-3.52s5.7-3 12.63-2.81c2.3437902.0495988 4.6819574.2500131 7 .6 1.26.21.5.73 2.28 1.63 1.33.68 2.84.38 3.09.82.0678413.1502824.0920962.3166017.07.48-.1 2.31-5.7 3-12.63 2.81"/><path d="m74.77 37.27c-6.92-.22-12.5-1.06-12.44-3.52s5.7-3 12.63-2.81c2.3437902.0495988 4.6819574.2500131 7 .6 1.26.21.5.73 2.28 1.63 1.33.68 2.84.38 3.09.82.0678413.1502824.0920962.3166017.07.48-.1 2.31-5.7 3-12.63 2.81"/><path d="m99.77 25.27c-6.92-.22-12.5-1.06-12.44-3.52s5.7-3 12.63-2.81c2.34379.0495988 4.681957.2500131 7 .6 1.26.21.5.73 2.28 1.63 1.33.68 2.84.38 3.09.82.067841.1502824.092096.3166017.07.48-.1 2.31-5.7 3-12.63 2.81"/><path d="m115.67 38.28c6.92-.22 12.5-1.06 12.43-3.52s-5.7-3-12.62-2.81c-2.343812.0491832-4.682006.2495998-7 .6-1.26.21-.5.72-2.28 1.63-1.33.68-2.85.37-3.09.82-.072448.1488996-.096906.3166114-.07.48.09 2.32 5.69 3 12.62 2.81"/><path d="m39.77 18.27c-6.92-.22-12.5-1.06-12.44-3.52s5.7-3 12.63-2.81c2.3437902.0495988 4.6819574.2500131 7 .6 1.26.21.5.73 2.28 1.63 1.33.68 2.84.38 3.09.82.0678413.1502824.0920962.3166017.07.48-.1 2.31-5.7 3-12.63 2.81"/><path d="m114.67 27.28c6.92-.22 12.5-1.06 12.43-3.52s-5.7-3-12.62-2.81c-2.343812.0491832-4.682006.2495998-7 .6-1.26.21-.5.72-2.28 1.63-1.33.68-2.85.37-3.09.82-.072448.1488996-.096906.3166114-.07.48.09 2.32 5.69 3 12.62 2.81"/><path d="m35 21.69c-5.63-4-9.78-7.88-8.35-9.88s6.4.7 12 4.74c1.9312519 1.3580503 3.7687515 2.8447545 5.5 4.45.94.88 0 .88 1 2.62.73 1.31 2.16 1.91 2.11 2.42-.0284289.1601454-.1011813.3091147-.21.43-1.37 1.87-6.4-.7-12-4.73"/><path d="m78 20.69c-5.63-4-9.78-7.88-8.35-9.88s6.4.7 12 4.74c1.9159707 1.3434178 3.7400337 2.8133587 5.46 4.4.94.88 0 .88 1 2.62.73 1.31 2.16 1.91 2.11 2.42-.0284289.1601454-.1011813.3091147-.21.43-1.37 1.87-6.4-.7-12-4.73"/><path d="m98.43 29.69c5.62-4 9.78-7.88 8.35-9.88s-6.41.7-12 4.74c-1.9145405 1.345318-3.7384808 2.81516-5.46 4.4-.93.88 0 .88-1 2.62-.72 1.31-2.15 1.91-2.1 2.42.0238607.1615972.0972276.3118247.21.43 1.37 1.87 6.4-.69 12-4.73"/><path d="m106.44 14.28c6.92.26 12.55-.19 12.65-2.65s-5.47-3.39-12.4-3.68c-2.333202-.11797064-4.671657-.08122349-7 .11-1.28.11-.56.68-2.39 1.46-1.38.59-2.87.18-3.15.61-.0789465.1433795-.1137382.3069003-.1.47-.07 2.32 5.47 3.39 12.4 3.69"/><path d="m36 23.09c6.47 2.46 11.48 5.08 10.61 7.38s-6.36 1-12.85-1.45c-2.1976367-.8106108-4.341902-1.7591643-6.42-2.84-1.13-.61-.24-.85-1.63-2.28-1-1.08-2.57-1.29-2.66-1.79-.0084802-.1616417.0224041-.3229261.09-.47.85-2.16 6.37-1 12.86 1.45"/><path d="m79 22.09c6.47 2.46 11.48 5.08 10.61 7.38s-6.36 1-12.85-1.45c-2.1976367-.8106108-4.341902-1.7591643-6.42-2.84-1.13-.61-.24-.85-1.63-2.28-1-1.08-2.57-1.29-2.66-1.79-.0084802-.1616417.0224041-.3229261.09-.47.85-2.16 6.37-1 12.86 1.45"/><path d="m67 26.09c6.47 2.46 11.48 5.08 10.61 7.38s-6.36 1-12.85-1.45c-2.1976367-.8106108-4.341902-1.7591643-6.42-2.84-1.13-.61-.24-.85-1.63-2.28-1-1.08-2.57-1.29-2.66-1.79-.0084802-.1616417.0224041-.3229261.09-.47.85-2.16 6.37-1 12.86 1.45"/><path d="m101.46 28.09c-6.48 2.46-11.48 5.08-10.62 7.38s6.37 1 12.86-1.45c2.195137-.8087748 4.33619-1.7573851 6.41-2.84 1.13-.61.25-.85 1.63-2.28 1-1.08 2.57-1.29 2.66-1.79.020097-.1654488-.011332-.3330695-.09-.48-.84-2.16-6.36-1-12.86 1.46"/><path d="m123.46 12.09c-6.46 2.46-11.46 5.08-10.62 7.38s6.37 1 12.86-1.45c2.195137-.8087748 4.33619-1.7573851 6.41-2.84 1.13-.61.25-.85 1.63-2.28 1-1.08 2.57-1.29 2.66-1.79.020097-.1654488-.011332-.3330695-.09-.48-.84-2.16-6.36-1-12.86 1.46"/><path d="m64.46 31.09c-6.46 2.46-11.46 5.08-10.62 7.38s6.37 1 12.86-1.45c2.1951367-.8087748 4.3361903-1.7573851 6.41-2.84 1.13-.61.25-.85 1.63-2.28 1-1.08 2.57-1.29 2.66-1.79.0200966-.1654488-.0113322-.3330695-.09-.48-.84-2.16-6.36-1-12.86 1.46"/><path d="m56 30.2c-6.27-3-11.63-4.73-12.69-2.51s3.72 5.26 10 8.24c2.1078313 1.0184338 4.2789787 1.9002536 6.5 2.64 1.22.39.78-.41 2.77-.41 1.49 0 2.71 1 3.13.67.1297149-.0995782.2271241-.2352553.28-.39 1-2.11-3.71-5.27-10-8.25"/><path d="m20 23.09c6.47 2.46 11.48 5.08 10.61 7.38s-6.36 1-12.85-1.45c-2.1976367-.8106108-4.341902-1.7591643-6.42-2.84-1.13-.61-.24-.85-1.63-2.28-1-1.08-2.57-1.29-2.66-1.79-.00848016-.1616417.02240409-.3229261.09-.47.85-2.16 6.37-1 12.86 1.45"/><path d="m88 10.09c6.47 2.46 11.48 5.08 10.61 7.38s-6.36 1-12.85-1.45c-2.1976367-.8106108-4.341902-1.7591643-6.42-2.84-1.13-.61-.24-.85-1.63-2.28-1-1.08-2.57-1.29-2.66-1.79-.0084802-.16164168.0224041-.32292608.09-.47.85-2.16 6.37-1 12.86 1.45"/><path d="m132.46 22.09c-6.48 2.46-11.48 5.08-10.62 7.38s6.37 1 12.86-1.45c2.195137-.8087748 4.33619-1.7573851 6.41-2.84 1.13-.61.25-.85 1.63-2.28 1-1.08 2.57-1.29 2.66-1.79.020097-.1654488-.011332-.3330695-.09-.48-.84-2.16-6.36-1-12.86 1.46"/><path d="m58.89 13.92c5.66 4 10.63 6.68 12 4.67s-2.74-5.82-8.39-9.84c-1.8800288-1.37626813-3.8475078-2.62890757-5.89-3.75-1.13-.6-.84.27-2.8-.08-1.47-.26-2.5-1.41-3-1.21-.1414696.08118928-.2588107.19853039-.34.34-1.32 1.91 2.74 5.83 8.39 9.86"/><path d="m52.09 12.87c4.22-2.08 7.84-3.35 8.59-1.85s-2.46 3.61-6.68 5.71c-1.4178039.7207352-2.880877 1.3487209-4.38 1.88-.83.28-.54-.27-1.89-.25-1 0-1.83.68-2.12.5-.0910208-.0691152-.1604087-.1627888-.2-.27-.68-1.42 2.46-3.62 6.69-5.72"/><path d="m63.34 18.87c-4.23-2.08-7.85-3.35-8.59-1.86s2.46 3.62 6.68 5.72c1.4212276.7207505 2.8876279 1.3487305 4.39 1.88.83.28.54-.28 1.89-.25 1 0 1.83.68 2.12.49.0826785-.0707232.1477331-.1597453.19-.26.68-1.42-2.46-3.62-6.68-5.72"/><path d="m102.34 12.87c-4.23-2.08-7.85-3.35-8.59-1.86s2.46 3.62 6.68 5.72c1.421228.7207505 2.887628 1.3487305 4.39 1.88.83.28.54-.28 1.89-.25 1 0 1.83.68 2.12.49.082678-.0707232.147733-.1597453.19-.26.68-1.42-2.46-3.62-6.68-5.72"/><path d="m7.09 17.87c4.22-2.08 7.84-3.35 8.59-1.85s-2.46 3.61-6.68 5.71c-1.41780391.7207352-2.880877 1.3487209-4.38 1.88-.83.28-.54-.27-1.89-.25-1 0-1.83.68-2.12.5-.09102083-.0691152-.16040869-.1627888-.2-.27-.68-1.42 2.46-3.62 6.69-5.72"/><path d="m69.57 7.71c4.57 1.12 8.16 2.47 7.77 4.1s-4.21 1.19-8.8.08c-1.5420311-.3638144-3.0586041-.8281396-4.54-1.39-.82-.31-.24-.55-1.29-1.4-.78-.65-1.84-.65-1.94-1-.0303192-.10791078-.0303192-.22208922 0-.33.39-1.53 4.21-1.19 8.8-.08"/><path d="m142.34 17.87c-4.23-2.08-7.85-3.35-8.59-1.86s2.46 3.62 6.68 5.72c1.421228.7207505 2.887628 1.3487305 4.39 1.88.82.28.53-.28 1.89-.25 1 0 1.82.68 2.11.49.088455-.067486.157461-.1571935.2-.26.68-1.42-2.46-3.62-6.68-5.72"/></g></g><path d="m94.51 110.64c5.3333333 0 10.666667-.196667 16-.59 0 1.48 0 3-.07 4.43-3.37.25-6.74.41-10.12.5v6.58c3.113333-.08 6.23-.226667 9.35-.44l-.08 4.41c-3.1.22-6.21.36-9.31.45l-.07 10.08c-1.89.06-3.78.09-5.66.09-.04-8.5-.0533333-17.003333-.04-25.51zm-16.51 24.96c-1.3333333-4.56-2.6666667-9.13-4-13.71-.15-.49-.4-1.5-.77-3s-.58-2.55-.64-3.07c-.06.62-.22 1.62-.48 3-.27 1.36-.48 2.34-.63 2.91-1.1266667 4.34-2.2333333 8.673333-3.32 13-2.17-.25-4.33-.53-6.5-.84-2.5933333-8.853333-5.26-17.75-8-26.69 1.92.34 3.84.65 5.76.93 1.3333333 4.84 2.6666667 9.663333 4 14.47.69 2.65 1.21 4.94 1.54 6.86 0-.65.19-1.65.42-3 .1559627-1.05832.3729916-2.106737.65-3.14 1.18-4.62 2.3833333-9.24 3.61-13.86 1.86.186667 3.72.356667 5.58.51 1.4466667 4.88 2.8733333 9.74 4.28 14.58.19.65.43 1.64.71 3s.5 2.47.64 3.42c.11-.9.29-2 .55-3.35s.5-2.43.71-3.26c1.1-4.58 2.2233333-9.166667 3.37-13.76 1.94.07 3.88.12 5.82.14-2.3133333 8.406667-4.58 16.826667-6.8 25.26-2.18-.1-4.36-.223333-6.54-.37zm37-25.9c2.96-.266667 5.916667-.6 8.87-1 3.37-.43 5.9-.16 7.59.89s2.47 2.88 2.34 5.54c-.036998 2.573796-1.120115 5.021641-3 6.78-2.219403 1.916576-4.988085 3.082153-7.91 3.33l-2.48.3-.26 9.08c-1.906667.22-3.816667.416667-5.73.59.2-8.506667.396667-17.016667.59-25.53zm8.43 3.5-2.66.33c-.07 2.53-.15 5.05-.22 7.58l1.91-.23c1.452143-.109753 2.841432-.637682 4-1.52.897343-.770012 1.421607-1.887712 1.44-3.07.156121-.99775-.223644-2.004128-1-2.65-.656044-.3938-1.416386-.578654-2.18-.53-.43 0-.87 0-1.3.09z" fill="#0a6eb0"/></g></svg>